G04 #@! TF.GenerationSoftware,KiCad,Pcbnew,9.0.2*
G04 #@! TF.CreationDate,2025-07-08T18:24:22-03:00*
G04 #@! TF.ProjectId,BottomBoardCam,426f7474-6f6d-4426-9f61-726443616d2e,rev?*
G04 #@! TF.SameCoordinates,Original*
G04 #@! TF.FileFunction,Legend,Top*
G04 #@! TF.FilePolarity,Positive*
%FSLAX46Y46*%
G04 Gerber Fmt 4.6, Leading zero omitted, Abs format (unit mm)*
G04 Created by KiCad (PCBNEW 9.0.2) date 2025-07-08 18:24:22*
%MOMM*%
%LPD*%
G01*
G04 APERTURE LIST*
G04 Aperture macros list*
%AMRoundRect*
0 Rectangle with rounded corners*
0 $1 Rounding radius*
0 $2 $3 $4 $5 $6 $7 $8 $9 X,Y pos of 4 corners*
0 Add a 4 corners polygon primitive as box body*
4,1,4,$2,$3,$4,$5,$6,$7,$8,$9,$2,$3,0*
0 Add four circle primitives for the rounded corners*
1,1,$1+$1,$2,$3*
1,1,$1+$1,$4,$5*
1,1,$1+$1,$6,$7*
1,1,$1+$1,$8,$9*
0 Add four rect primitives between the rounded corners*
20,1,$1+$1,$2,$3,$4,$5,0*
20,1,$1+$1,$4,$5,$6,$7,0*
20,1,$1+$1,$6,$7,$8,$9,0*
20,1,$1+$1,$8,$9,$2,$3,0*%
G04 Aperture macros list end*
%ADD10C,0.150000*%
%ADD11C,0.254000*%
%ADD12C,0.120000*%
%ADD13C,0.127000*%
%ADD14RoundRect,0.250000X0.475000X-0.250000X0.475000X0.250000X-0.475000X0.250000X-0.475000X-0.250000X0*%
%ADD15RoundRect,0.250000X-0.450000X0.262500X-0.450000X-0.262500X0.450000X-0.262500X0.450000X0.262500X0*%
%ADD16RoundRect,0.250000X0.262500X0.450000X-0.262500X0.450000X-0.262500X-0.450000X0.262500X-0.450000X0*%
%ADD17C,1.270000*%
%ADD18C,1.520000*%
%ADD19R,1.520000X1.520000*%
%ADD20RoundRect,0.250000X-0.262500X-0.450000X0.262500X-0.450000X0.262500X0.450000X-0.262500X0.450000X0*%
%ADD21RoundRect,0.150000X-0.587500X-0.150000X0.587500X-0.150000X0.587500X0.150000X-0.587500X0.150000X0*%
%ADD22RoundRect,0.075000X0.075000X-0.125000X0.075000X0.125000X-0.075000X0.125000X-0.075000X-0.125000X0*%
%ADD23R,1.750000X0.450000*%
%ADD24R,1.700000X1.700000*%
%ADD25C,1.700000*%
%ADD26O,3.048800X1.626400*%
G04 APERTURE END LIST*
D10*
X145179580Y-97116666D02*
X145227200Y-97164285D01*
X145227200Y-97164285D02*
X145274819Y-97307142D01*
X145274819Y-97307142D02*
X145274819Y-97402380D01*
X145274819Y-97402380D02*
X145227200Y-97545237D01*
X145227200Y-97545237D02*
X145131961Y-97640475D01*
X145131961Y-97640475D02*
X145036723Y-97688094D01*
X145036723Y-97688094D02*
X144846247Y-97735713D01*
X144846247Y-97735713D02*
X144703390Y-97735713D01*
X144703390Y-97735713D02*
X144512914Y-97688094D01*
X144512914Y-97688094D02*
X144417676Y-97640475D01*
X144417676Y-97640475D02*
X144322438Y-97545237D01*
X144322438Y-97545237D02*
X144274819Y-97402380D01*
X144274819Y-97402380D02*
X144274819Y-97307142D01*
X144274819Y-97307142D02*
X144322438Y-97164285D01*
X144322438Y-97164285D02*
X144370057Y-97116666D01*
X144370057Y-96735713D02*
X144322438Y-96688094D01*
X144322438Y-96688094D02*
X144274819Y-96592856D01*
X144274819Y-96592856D02*
X144274819Y-96354761D01*
X144274819Y-96354761D02*
X144322438Y-96259523D01*
X144322438Y-96259523D02*
X144370057Y-96211904D01*
X144370057Y-96211904D02*
X144465295Y-96164285D01*
X144465295Y-96164285D02*
X144560533Y-96164285D01*
X144560533Y-96164285D02*
X144703390Y-96211904D01*
X144703390Y-96211904D02*
X145274819Y-96783332D01*
X145274819Y-96783332D02*
X145274819Y-96164285D01*
X151104819Y-97079166D02*
X150628628Y-97412499D01*
X151104819Y-97650594D02*
X150104819Y-97650594D01*
X150104819Y-97650594D02*
X150104819Y-97269642D01*
X150104819Y-97269642D02*
X150152438Y-97174404D01*
X150152438Y-97174404D02*
X150200057Y-97126785D01*
X150200057Y-97126785D02*
X150295295Y-97079166D01*
X150295295Y-97079166D02*
X150438152Y-97079166D01*
X150438152Y-97079166D02*
X150533390Y-97126785D01*
X150533390Y-97126785D02*
X150581009Y-97174404D01*
X150581009Y-97174404D02*
X150628628Y-97269642D01*
X150628628Y-97269642D02*
X150628628Y-97650594D01*
X150104819Y-96222023D02*
X150104819Y-96412499D01*
X150104819Y-96412499D02*
X150152438Y-96507737D01*
X150152438Y-96507737D02*
X150200057Y-96555356D01*
X150200057Y-96555356D02*
X150342914Y-96650594D01*
X150342914Y-96650594D02*
X150533390Y-96698213D01*
X150533390Y-96698213D02*
X150914342Y-96698213D01*
X150914342Y-96698213D02*
X151009580Y-96650594D01*
X151009580Y-96650594D02*
X151057200Y-96602975D01*
X151057200Y-96602975D02*
X151104819Y-96507737D01*
X151104819Y-96507737D02*
X151104819Y-96317261D01*
X151104819Y-96317261D02*
X151057200Y-96222023D01*
X151057200Y-96222023D02*
X151009580Y-96174404D01*
X151009580Y-96174404D02*
X150914342Y-96126785D01*
X150914342Y-96126785D02*
X150676247Y-96126785D01*
X150676247Y-96126785D02*
X150581009Y-96174404D01*
X150581009Y-96174404D02*
X150533390Y-96222023D01*
X150533390Y-96222023D02*
X150485771Y-96317261D01*
X150485771Y-96317261D02*
X150485771Y-96507737D01*
X150485771Y-96507737D02*
X150533390Y-96602975D01*
X150533390Y-96602975D02*
X150581009Y-96650594D01*
X150581009Y-96650594D02*
X150676247Y-96698213D01*
X149745833Y-102104819D02*
X149412500Y-101628628D01*
X149174405Y-102104819D02*
X149174405Y-101104819D01*
X149174405Y-101104819D02*
X149555357Y-101104819D01*
X149555357Y-101104819D02*
X149650595Y-101152438D01*
X149650595Y-101152438D02*
X149698214Y-101200057D01*
X149698214Y-101200057D02*
X149745833Y-101295295D01*
X149745833Y-101295295D02*
X149745833Y-101438152D01*
X149745833Y-101438152D02*
X149698214Y-101533390D01*
X149698214Y-101533390D02*
X149650595Y-101581009D01*
X149650595Y-101581009D02*
X149555357Y-101628628D01*
X149555357Y-101628628D02*
X149174405Y-101628628D01*
X150650595Y-101104819D02*
X150174405Y-101104819D01*
X150174405Y-101104819D02*
X150126786Y-101581009D01*
X150126786Y-101581009D02*
X150174405Y-101533390D01*
X150174405Y-101533390D02*
X150269643Y-101485771D01*
X150269643Y-101485771D02*
X150507738Y-101485771D01*
X150507738Y-101485771D02*
X150602976Y-101533390D01*
X150602976Y-101533390D02*
X150650595Y-101581009D01*
X150650595Y-101581009D02*
X150698214Y-101676247D01*
X150698214Y-101676247D02*
X150698214Y-101914342D01*
X150698214Y-101914342D02*
X150650595Y-102009580D01*
X150650595Y-102009580D02*
X150602976Y-102057200D01*
X150602976Y-102057200D02*
X150507738Y-102104819D01*
X150507738Y-102104819D02*
X150269643Y-102104819D01*
X150269643Y-102104819D02*
X150174405Y-102057200D01*
X150174405Y-102057200D02*
X150126786Y-102009580D01*
D11*
X150076667Y-105264318D02*
X150076667Y-106171461D01*
X150076667Y-106171461D02*
X150016190Y-106352889D01*
X150016190Y-106352889D02*
X149895238Y-106473842D01*
X149895238Y-106473842D02*
X149713809Y-106534318D01*
X149713809Y-106534318D02*
X149592857Y-106534318D01*
X150620952Y-105385270D02*
X150681428Y-105324794D01*
X150681428Y-105324794D02*
X150802381Y-105264318D01*
X150802381Y-105264318D02*
X151104762Y-105264318D01*
X151104762Y-105264318D02*
X151225714Y-105324794D01*
X151225714Y-105324794D02*
X151286190Y-105385270D01*
X151286190Y-105385270D02*
X151346667Y-105506222D01*
X151346667Y-105506222D02*
X151346667Y-105627175D01*
X151346667Y-105627175D02*
X151286190Y-105808603D01*
X151286190Y-105808603D02*
X150560476Y-106534318D01*
X150560476Y-106534318D02*
X151346667Y-106534318D01*
D10*
X164333333Y-92304819D02*
X164000000Y-91828628D01*
X163761905Y-92304819D02*
X163761905Y-91304819D01*
X163761905Y-91304819D02*
X164142857Y-91304819D01*
X164142857Y-91304819D02*
X164238095Y-91352438D01*
X164238095Y-91352438D02*
X164285714Y-91400057D01*
X164285714Y-91400057D02*
X164333333Y-91495295D01*
X164333333Y-91495295D02*
X164333333Y-91638152D01*
X164333333Y-91638152D02*
X164285714Y-91733390D01*
X164285714Y-91733390D02*
X164238095Y-91781009D01*
X164238095Y-91781009D02*
X164142857Y-91828628D01*
X164142857Y-91828628D02*
X163761905Y-91828628D01*
X165285714Y-92304819D02*
X164714286Y-92304819D01*
X165000000Y-92304819D02*
X165000000Y-91304819D01*
X165000000Y-91304819D02*
X164904762Y-91447676D01*
X164904762Y-91447676D02*
X164809524Y-91542914D01*
X164809524Y-91542914D02*
X164714286Y-91590533D01*
X161342261Y-75150057D02*
X161247023Y-75102438D01*
X161247023Y-75102438D02*
X161151785Y-75007200D01*
X161151785Y-75007200D02*
X161008928Y-74864342D01*
X161008928Y-74864342D02*
X160913690Y-74816723D01*
X160913690Y-74816723D02*
X160818452Y-74816723D01*
X160866071Y-75054819D02*
X160770833Y-75007200D01*
X160770833Y-75007200D02*
X160675595Y-74911961D01*
X160675595Y-74911961D02*
X160627976Y-74721485D01*
X160627976Y-74721485D02*
X160627976Y-74388152D01*
X160627976Y-74388152D02*
X160675595Y-74197676D01*
X160675595Y-74197676D02*
X160770833Y-74102438D01*
X160770833Y-74102438D02*
X160866071Y-74054819D01*
X160866071Y-74054819D02*
X161056547Y-74054819D01*
X161056547Y-74054819D02*
X161151785Y-74102438D01*
X161151785Y-74102438D02*
X161247023Y-74197676D01*
X161247023Y-74197676D02*
X161294642Y-74388152D01*
X161294642Y-74388152D02*
X161294642Y-74721485D01*
X161294642Y-74721485D02*
X161247023Y-74911961D01*
X161247023Y-74911961D02*
X161151785Y-75007200D01*
X161151785Y-75007200D02*
X161056547Y-75054819D01*
X161056547Y-75054819D02*
X160866071Y-75054819D01*
X161675595Y-74150057D02*
X161723214Y-74102438D01*
X161723214Y-74102438D02*
X161818452Y-74054819D01*
X161818452Y-74054819D02*
X162056547Y-74054819D01*
X162056547Y-74054819D02*
X162151785Y-74102438D01*
X162151785Y-74102438D02*
X162199404Y-74150057D01*
X162199404Y-74150057D02*
X162247023Y-74245295D01*
X162247023Y-74245295D02*
X162247023Y-74340533D01*
X162247023Y-74340533D02*
X162199404Y-74483390D01*
X162199404Y-74483390D02*
X161627976Y-75054819D01*
X161627976Y-75054819D02*
X162247023Y-75054819D01*
X162359580Y-86941666D02*
X162407200Y-86989285D01*
X162407200Y-86989285D02*
X162454819Y-87132142D01*
X162454819Y-87132142D02*
X162454819Y-87227380D01*
X162454819Y-87227380D02*
X162407200Y-87370237D01*
X162407200Y-87370237D02*
X162311961Y-87465475D01*
X162311961Y-87465475D02*
X162216723Y-87513094D01*
X162216723Y-87513094D02*
X162026247Y-87560713D01*
X162026247Y-87560713D02*
X161883390Y-87560713D01*
X161883390Y-87560713D02*
X161692914Y-87513094D01*
X161692914Y-87513094D02*
X161597676Y-87465475D01*
X161597676Y-87465475D02*
X161502438Y-87370237D01*
X161502438Y-87370237D02*
X161454819Y-87227380D01*
X161454819Y-87227380D02*
X161454819Y-87132142D01*
X161454819Y-87132142D02*
X161502438Y-86989285D01*
X161502438Y-86989285D02*
X161550057Y-86941666D01*
X162454819Y-85989285D02*
X162454819Y-86560713D01*
X162454819Y-86274999D02*
X161454819Y-86274999D01*
X161454819Y-86274999D02*
X161597676Y-86370237D01*
X161597676Y-86370237D02*
X161692914Y-86465475D01*
X161692914Y-86465475D02*
X161740533Y-86560713D01*
X158858333Y-72804819D02*
X158525000Y-72328628D01*
X158286905Y-72804819D02*
X158286905Y-71804819D01*
X158286905Y-71804819D02*
X158667857Y-71804819D01*
X158667857Y-71804819D02*
X158763095Y-71852438D01*
X158763095Y-71852438D02*
X158810714Y-71900057D01*
X158810714Y-71900057D02*
X158858333Y-71995295D01*
X158858333Y-71995295D02*
X158858333Y-72138152D01*
X158858333Y-72138152D02*
X158810714Y-72233390D01*
X158810714Y-72233390D02*
X158763095Y-72281009D01*
X158763095Y-72281009D02*
X158667857Y-72328628D01*
X158667857Y-72328628D02*
X158286905Y-72328628D01*
X159239286Y-71900057D02*
X159286905Y-71852438D01*
X159286905Y-71852438D02*
X159382143Y-71804819D01*
X159382143Y-71804819D02*
X159620238Y-71804819D01*
X159620238Y-71804819D02*
X159715476Y-71852438D01*
X159715476Y-71852438D02*
X159763095Y-71900057D01*
X159763095Y-71900057D02*
X159810714Y-71995295D01*
X159810714Y-71995295D02*
X159810714Y-72090533D01*
X159810714Y-72090533D02*
X159763095Y-72233390D01*
X159763095Y-72233390D02*
X159191667Y-72804819D01*
X159191667Y-72804819D02*
X159810714Y-72804819D01*
X153967261Y-93650057D02*
X153872023Y-93602438D01*
X153872023Y-93602438D02*
X153776785Y-93507200D01*
X153776785Y-93507200D02*
X153633928Y-93364342D01*
X153633928Y-93364342D02*
X153538690Y-93316723D01*
X153538690Y-93316723D02*
X153443452Y-93316723D01*
X153491071Y-93554819D02*
X153395833Y-93507200D01*
X153395833Y-93507200D02*
X153300595Y-93411961D01*
X153300595Y-93411961D02*
X153252976Y-93221485D01*
X153252976Y-93221485D02*
X153252976Y-92888152D01*
X153252976Y-92888152D02*
X153300595Y-92697676D01*
X153300595Y-92697676D02*
X153395833Y-92602438D01*
X153395833Y-92602438D02*
X153491071Y-92554819D01*
X153491071Y-92554819D02*
X153681547Y-92554819D01*
X153681547Y-92554819D02*
X153776785Y-92602438D01*
X153776785Y-92602438D02*
X153872023Y-92697676D01*
X153872023Y-92697676D02*
X153919642Y-92888152D01*
X153919642Y-92888152D02*
X153919642Y-93221485D01*
X153919642Y-93221485D02*
X153872023Y-93411961D01*
X153872023Y-93411961D02*
X153776785Y-93507200D01*
X153776785Y-93507200D02*
X153681547Y-93554819D01*
X153681547Y-93554819D02*
X153491071Y-93554819D01*
X154252976Y-92554819D02*
X154872023Y-92554819D01*
X154872023Y-92554819D02*
X154538690Y-92935771D01*
X154538690Y-92935771D02*
X154681547Y-92935771D01*
X154681547Y-92935771D02*
X154776785Y-92983390D01*
X154776785Y-92983390D02*
X154824404Y-93031009D01*
X154824404Y-93031009D02*
X154872023Y-93126247D01*
X154872023Y-93126247D02*
X154872023Y-93364342D01*
X154872023Y-93364342D02*
X154824404Y-93459580D01*
X154824404Y-93459580D02*
X154776785Y-93507200D01*
X154776785Y-93507200D02*
X154681547Y-93554819D01*
X154681547Y-93554819D02*
X154395833Y-93554819D01*
X154395833Y-93554819D02*
X154300595Y-93507200D01*
X154300595Y-93507200D02*
X154252976Y-93459580D01*
X152842261Y-74750057D02*
X152747023Y-74702438D01*
X152747023Y-74702438D02*
X152651785Y-74607200D01*
X152651785Y-74607200D02*
X152508928Y-74464342D01*
X152508928Y-74464342D02*
X152413690Y-74416723D01*
X152413690Y-74416723D02*
X152318452Y-74416723D01*
X152366071Y-74654819D02*
X152270833Y-74607200D01*
X152270833Y-74607200D02*
X152175595Y-74511961D01*
X152175595Y-74511961D02*
X152127976Y-74321485D01*
X152127976Y-74321485D02*
X152127976Y-73988152D01*
X152127976Y-73988152D02*
X152175595Y-73797676D01*
X152175595Y-73797676D02*
X152270833Y-73702438D01*
X152270833Y-73702438D02*
X152366071Y-73654819D01*
X152366071Y-73654819D02*
X152556547Y-73654819D01*
X152556547Y-73654819D02*
X152651785Y-73702438D01*
X152651785Y-73702438D02*
X152747023Y-73797676D01*
X152747023Y-73797676D02*
X152794642Y-73988152D01*
X152794642Y-73988152D02*
X152794642Y-74321485D01*
X152794642Y-74321485D02*
X152747023Y-74511961D01*
X152747023Y-74511961D02*
X152651785Y-74607200D01*
X152651785Y-74607200D02*
X152556547Y-74654819D01*
X152556547Y-74654819D02*
X152366071Y-74654819D01*
X153747023Y-74654819D02*
X153175595Y-74654819D01*
X153461309Y-74654819D02*
X153461309Y-73654819D01*
X153461309Y-73654819D02*
X153366071Y-73797676D01*
X153366071Y-73797676D02*
X153270833Y-73892914D01*
X153270833Y-73892914D02*
X153175595Y-73940533D01*
X150595833Y-72454819D02*
X150262500Y-71978628D01*
X150024405Y-72454819D02*
X150024405Y-71454819D01*
X150024405Y-71454819D02*
X150405357Y-71454819D01*
X150405357Y-71454819D02*
X150500595Y-71502438D01*
X150500595Y-71502438D02*
X150548214Y-71550057D01*
X150548214Y-71550057D02*
X150595833Y-71645295D01*
X150595833Y-71645295D02*
X150595833Y-71788152D01*
X150595833Y-71788152D02*
X150548214Y-71883390D01*
X150548214Y-71883390D02*
X150500595Y-71931009D01*
X150500595Y-71931009D02*
X150405357Y-71978628D01*
X150405357Y-71978628D02*
X150024405Y-71978628D01*
X150929167Y-71454819D02*
X151548214Y-71454819D01*
X151548214Y-71454819D02*
X151214881Y-71835771D01*
X151214881Y-71835771D02*
X151357738Y-71835771D01*
X151357738Y-71835771D02*
X151452976Y-71883390D01*
X151452976Y-71883390D02*
X151500595Y-71931009D01*
X151500595Y-71931009D02*
X151548214Y-72026247D01*
X151548214Y-72026247D02*
X151548214Y-72264342D01*
X151548214Y-72264342D02*
X151500595Y-72359580D01*
X151500595Y-72359580D02*
X151452976Y-72407200D01*
X151452976Y-72407200D02*
X151357738Y-72454819D01*
X151357738Y-72454819D02*
X151072024Y-72454819D01*
X151072024Y-72454819D02*
X150976786Y-72407200D01*
X150976786Y-72407200D02*
X150929167Y-72359580D01*
X151604819Y-92754166D02*
X151128628Y-93087499D01*
X151604819Y-93325594D02*
X150604819Y-93325594D01*
X150604819Y-93325594D02*
X150604819Y-92944642D01*
X150604819Y-92944642D02*
X150652438Y-92849404D01*
X150652438Y-92849404D02*
X150700057Y-92801785D01*
X150700057Y-92801785D02*
X150795295Y-92754166D01*
X150795295Y-92754166D02*
X150938152Y-92754166D01*
X150938152Y-92754166D02*
X151033390Y-92801785D01*
X151033390Y-92801785D02*
X151081009Y-92849404D01*
X151081009Y-92849404D02*
X151128628Y-92944642D01*
X151128628Y-92944642D02*
X151128628Y-93325594D01*
X150938152Y-91897023D02*
X151604819Y-91897023D01*
X150557200Y-92135118D02*
X151271485Y-92373213D01*
X151271485Y-92373213D02*
X151271485Y-91754166D01*
X155808095Y-79084819D02*
X155808095Y-79894342D01*
X155808095Y-79894342D02*
X155855714Y-79989580D01*
X155855714Y-79989580D02*
X155903333Y-80037200D01*
X155903333Y-80037200D02*
X155998571Y-80084819D01*
X155998571Y-80084819D02*
X156189047Y-80084819D01*
X156189047Y-80084819D02*
X156284285Y-80037200D01*
X156284285Y-80037200D02*
X156331904Y-79989580D01*
X156331904Y-79989580D02*
X156379523Y-79894342D01*
X156379523Y-79894342D02*
X156379523Y-79084819D01*
X156760476Y-79084819D02*
X157379523Y-79084819D01*
X157379523Y-79084819D02*
X157046190Y-79465771D01*
X157046190Y-79465771D02*
X157189047Y-79465771D01*
X157189047Y-79465771D02*
X157284285Y-79513390D01*
X157284285Y-79513390D02*
X157331904Y-79561009D01*
X157331904Y-79561009D02*
X157379523Y-79656247D01*
X157379523Y-79656247D02*
X157379523Y-79894342D01*
X157379523Y-79894342D02*
X157331904Y-79989580D01*
X157331904Y-79989580D02*
X157284285Y-80037200D01*
X157284285Y-80037200D02*
X157189047Y-80084819D01*
X157189047Y-80084819D02*
X156903333Y-80084819D01*
X156903333Y-80084819D02*
X156808095Y-80037200D01*
X156808095Y-80037200D02*
X156760476Y-79989580D01*
X161534819Y-72833333D02*
X162249104Y-72833333D01*
X162249104Y-72833333D02*
X162391961Y-72880952D01*
X162391961Y-72880952D02*
X162487200Y-72976190D01*
X162487200Y-72976190D02*
X162534819Y-73119047D01*
X162534819Y-73119047D02*
X162534819Y-73214285D01*
X162534819Y-71833333D02*
X162534819Y-72404761D01*
X162534819Y-72119047D02*
X161534819Y-72119047D01*
X161534819Y-72119047D02*
X161677676Y-72214285D01*
X161677676Y-72214285D02*
X161772914Y-72309523D01*
X161772914Y-72309523D02*
X161820533Y-72404761D01*
X144738095Y-71954819D02*
X144738095Y-72764342D01*
X144738095Y-72764342D02*
X144785714Y-72859580D01*
X144785714Y-72859580D02*
X144833333Y-72907200D01*
X144833333Y-72907200D02*
X144928571Y-72954819D01*
X144928571Y-72954819D02*
X145119047Y-72954819D01*
X145119047Y-72954819D02*
X145214285Y-72907200D01*
X145214285Y-72907200D02*
X145261904Y-72859580D01*
X145261904Y-72859580D02*
X145309523Y-72764342D01*
X145309523Y-72764342D02*
X145309523Y-71954819D01*
X146309523Y-72954819D02*
X145738095Y-72954819D01*
X146023809Y-72954819D02*
X146023809Y-71954819D01*
X146023809Y-71954819D02*
X145928571Y-72097676D01*
X145928571Y-72097676D02*
X145833333Y-72192914D01*
X145833333Y-72192914D02*
X145738095Y-72240533D01*
X149669524Y-108886953D02*
X150242858Y-108886953D01*
X150488572Y-109787905D02*
X149669524Y-109787905D01*
X149669524Y-109787905D02*
X149669524Y-108067905D01*
X149669524Y-108067905D02*
X150488572Y-108067905D01*
X151143810Y-109706001D02*
X151389524Y-109787905D01*
X151389524Y-109787905D02*
X151799048Y-109787905D01*
X151799048Y-109787905D02*
X151962857Y-109706001D01*
X151962857Y-109706001D02*
X152044762Y-109624096D01*
X152044762Y-109624096D02*
X152126667Y-109460286D01*
X152126667Y-109460286D02*
X152126667Y-109296477D01*
X152126667Y-109296477D02*
X152044762Y-109132667D01*
X152044762Y-109132667D02*
X151962857Y-109050762D01*
X151962857Y-109050762D02*
X151799048Y-108968858D01*
X151799048Y-108968858D02*
X151471429Y-108886953D01*
X151471429Y-108886953D02*
X151307619Y-108805048D01*
X151307619Y-108805048D02*
X151225714Y-108723143D01*
X151225714Y-108723143D02*
X151143810Y-108559334D01*
X151143810Y-108559334D02*
X151143810Y-108395524D01*
X151143810Y-108395524D02*
X151225714Y-108231715D01*
X151225714Y-108231715D02*
X151307619Y-108149810D01*
X151307619Y-108149810D02*
X151471429Y-108067905D01*
X151471429Y-108067905D02*
X151880952Y-108067905D01*
X151880952Y-108067905D02*
X152126667Y-108149810D01*
X152863809Y-109787905D02*
X152863809Y-108067905D01*
X152863809Y-108067905D02*
X153519047Y-108067905D01*
X153519047Y-108067905D02*
X153682857Y-108149810D01*
X153682857Y-108149810D02*
X153764762Y-108231715D01*
X153764762Y-108231715D02*
X153846666Y-108395524D01*
X153846666Y-108395524D02*
X153846666Y-108641239D01*
X153846666Y-108641239D02*
X153764762Y-108805048D01*
X153764762Y-108805048D02*
X153682857Y-108886953D01*
X153682857Y-108886953D02*
X153519047Y-108968858D01*
X153519047Y-108968858D02*
X152863809Y-108968858D01*
X154420000Y-108067905D02*
X155484762Y-108067905D01*
X155484762Y-108067905D02*
X154911428Y-108723143D01*
X154911428Y-108723143D02*
X155157143Y-108723143D01*
X155157143Y-108723143D02*
X155320952Y-108805048D01*
X155320952Y-108805048D02*
X155402857Y-108886953D01*
X155402857Y-108886953D02*
X155484762Y-109050762D01*
X155484762Y-109050762D02*
X155484762Y-109460286D01*
X155484762Y-109460286D02*
X155402857Y-109624096D01*
X155402857Y-109624096D02*
X155320952Y-109706001D01*
X155320952Y-109706001D02*
X155157143Y-109787905D01*
X155157143Y-109787905D02*
X154665714Y-109787905D01*
X154665714Y-109787905D02*
X154501905Y-109706001D01*
X154501905Y-109706001D02*
X154420000Y-109624096D01*
X156140000Y-108231715D02*
X156221904Y-108149810D01*
X156221904Y-108149810D02*
X156385714Y-108067905D01*
X156385714Y-108067905D02*
X156795238Y-108067905D01*
X156795238Y-108067905D02*
X156959047Y-108149810D01*
X156959047Y-108149810D02*
X157040952Y-108231715D01*
X157040952Y-108231715D02*
X157122857Y-108395524D01*
X157122857Y-108395524D02*
X157122857Y-108559334D01*
X157122857Y-108559334D02*
X157040952Y-108805048D01*
X157040952Y-108805048D02*
X156058095Y-109787905D01*
X156058095Y-109787905D02*
X157122857Y-109787905D01*
X157859999Y-109132667D02*
X159170476Y-109132667D01*
X160972380Y-109624096D02*
X160890476Y-109706001D01*
X160890476Y-109706001D02*
X160644761Y-109787905D01*
X160644761Y-109787905D02*
X160480952Y-109787905D01*
X160480952Y-109787905D02*
X160235238Y-109706001D01*
X160235238Y-109706001D02*
X160071428Y-109542191D01*
X160071428Y-109542191D02*
X159989523Y-109378381D01*
X159989523Y-109378381D02*
X159907619Y-109050762D01*
X159907619Y-109050762D02*
X159907619Y-108805048D01*
X159907619Y-108805048D02*
X159989523Y-108477429D01*
X159989523Y-108477429D02*
X160071428Y-108313620D01*
X160071428Y-108313620D02*
X160235238Y-108149810D01*
X160235238Y-108149810D02*
X160480952Y-108067905D01*
X160480952Y-108067905D02*
X160644761Y-108067905D01*
X160644761Y-108067905D02*
X160890476Y-108149810D01*
X160890476Y-108149810D02*
X160972380Y-108231715D01*
X161627619Y-109296477D02*
X162446666Y-109296477D01*
X161463809Y-109787905D02*
X162037142Y-108067905D01*
X162037142Y-108067905D02*
X162610476Y-109787905D01*
X163183809Y-109787905D02*
X163183809Y-108067905D01*
X163183809Y-108067905D02*
X163757143Y-109296477D01*
X163757143Y-109296477D02*
X164330476Y-108067905D01*
X164330476Y-108067905D02*
X164330476Y-109787905D01*
D12*
X145765000Y-97211252D02*
X145765000Y-96688748D01*
X147235000Y-97211252D02*
X147235000Y-96688748D01*
X148265000Y-96685436D02*
X148265000Y-97139564D01*
X149735000Y-96685436D02*
X149735000Y-97139564D01*
X150139564Y-99265000D02*
X149685436Y-99265000D01*
X150139564Y-100735000D02*
X149685436Y-100735000D01*
D13*
X146500000Y-105960000D02*
X145500000Y-106460000D01*
X145500000Y-105460000D02*
X146500000Y-105960000D01*
X145500000Y-106460000D02*
X145500000Y-105460000D01*
X165825000Y-109060000D02*
X147175000Y-109060000D01*
D12*
X164272936Y-92765000D02*
X164727064Y-92765000D01*
X164272936Y-94235000D02*
X164727064Y-94235000D01*
X161437500Y-75440000D02*
X160787500Y-75440000D01*
X161437500Y-75440000D02*
X162087500Y-75440000D01*
X161437500Y-78560000D02*
X160787500Y-78560000D01*
X161437500Y-78560000D02*
X162087500Y-78560000D01*
X160275000Y-75490000D02*
X160035000Y-75160000D01*
X160515000Y-75160000D01*
X160275000Y-75490000D01*
G36*
X160275000Y-75490000D02*
G01*
X160035000Y-75160000D01*
X160515000Y-75160000D01*
X160275000Y-75490000D01*
G37*
X158797936Y-73265000D02*
X159252064Y-73265000D01*
X158797936Y-74735000D02*
X159252064Y-74735000D01*
X154062500Y-93940000D02*
X153412500Y-93940000D01*
X154062500Y-93940000D02*
X154712500Y-93940000D01*
X154062500Y-97060000D02*
X153412500Y-97060000D01*
X154062500Y-97060000D02*
X154712500Y-97060000D01*
X152900000Y-93990000D02*
X152660000Y-93660000D01*
X153140000Y-93660000D01*
X152900000Y-93990000D01*
G36*
X152900000Y-93990000D02*
G01*
X152660000Y-93660000D01*
X153140000Y-93660000D01*
X152900000Y-93990000D01*
G37*
X152937500Y-75040000D02*
X152287500Y-75040000D01*
X152937500Y-75040000D02*
X153587500Y-75040000D01*
X152937500Y-78160000D02*
X152287500Y-78160000D01*
X152937500Y-78160000D02*
X153587500Y-78160000D01*
X151775000Y-75090000D02*
X151535000Y-74760000D01*
X152015000Y-74760000D01*
X151775000Y-75090000D01*
G36*
X151775000Y-75090000D02*
G01*
X151535000Y-74760000D01*
X152015000Y-74760000D01*
X151775000Y-75090000D01*
G37*
X150535436Y-72915000D02*
X150989564Y-72915000D01*
X150535436Y-74385000D02*
X150989564Y-74385000D01*
X148765000Y-92360436D02*
X148765000Y-92814564D01*
X150235000Y-92360436D02*
X150235000Y-92814564D01*
D10*
X153695000Y-80555000D02*
X153695000Y-81130000D01*
X153695000Y-80555000D02*
X159445000Y-80555000D01*
X153695000Y-90630000D02*
X153695000Y-91205000D01*
X153695000Y-91205000D02*
X159445000Y-91205000D01*
X159445000Y-80555000D02*
X159445000Y-81130000D01*
X159445000Y-90630000D02*
X159445000Y-91205000D01*
D12*
X153195000Y-81130000D02*
X152955000Y-80800000D01*
X153435000Y-80800000D01*
X153195000Y-81130000D01*
G36*
X153195000Y-81130000D02*
G01*
X152955000Y-80800000D01*
X153435000Y-80800000D01*
X153195000Y-81130000D01*
G37*
X163080000Y-73880000D02*
X163080000Y-72500000D01*
X164460000Y-73880000D02*
X163080000Y-73880000D01*
X165730000Y-71120000D02*
X168380000Y-71120000D01*
X165730000Y-73880000D02*
X165730000Y-71120000D01*
X165730000Y-73880000D02*
X168380000Y-73880000D01*
X168380000Y-73880000D02*
X168380000Y-71120000D01*
D13*
X143410000Y-70450000D02*
X169730000Y-70450000D01*
X143410000Y-110450000D02*
X143410000Y-70450000D01*
X169730000Y-70450000D02*
X169730000Y-110450000D01*
X169730000Y-110450000D02*
X143410000Y-110450000D01*
%LPC*%
D14*
X146500000Y-97900000D03*
X146500000Y-96000000D03*
D15*
X149000000Y-97825000D03*
X149000000Y-96000000D03*
D16*
X149000000Y-100000000D03*
X150825000Y-100000000D03*
D17*
X165500000Y-104000000D03*
X147500000Y-104000000D03*
D18*
X162500000Y-105960000D03*
X159500000Y-105960000D03*
X156500000Y-105960000D03*
X153500000Y-105960000D03*
D19*
X150500000Y-105960000D03*
D20*
X163587500Y-93500000D03*
X165412500Y-93500000D03*
D21*
X160500000Y-76050000D03*
X160500000Y-77950000D03*
X162375000Y-77000000D03*
D22*
X163000000Y-87025000D03*
X163000000Y-86525000D03*
D20*
X158112500Y-74000000D03*
X159937500Y-74000000D03*
D21*
X153125000Y-94550000D03*
X153125000Y-96450000D03*
X155000000Y-95500000D03*
X152000000Y-75650000D03*
X152000000Y-77550000D03*
X153875000Y-76600000D03*
D20*
X149850000Y-73650000D03*
X151675000Y-73650000D03*
D15*
X149500000Y-91675000D03*
X149500000Y-93500000D03*
D23*
X152970000Y-81655000D03*
X152970000Y-82305000D03*
X152970000Y-82955000D03*
X152970000Y-83605000D03*
X152970000Y-84255000D03*
X152970000Y-84905000D03*
X152970000Y-85555000D03*
X152970000Y-86205000D03*
X152970000Y-86855000D03*
X152970000Y-87505000D03*
X152970000Y-88155000D03*
X152970000Y-88805000D03*
X152970000Y-89455000D03*
X152970000Y-90105000D03*
X160170000Y-90105000D03*
X160170000Y-89455000D03*
X160170000Y-88805000D03*
X160170000Y-88155000D03*
X160170000Y-87505000D03*
X160170000Y-86855000D03*
X160170000Y-86205000D03*
X160170000Y-85555000D03*
X160170000Y-84905000D03*
X160170000Y-84255000D03*
X160170000Y-83605000D03*
X160170000Y-82955000D03*
X160170000Y-82305000D03*
X160170000Y-81655000D03*
D24*
X164460000Y-72500000D03*
D25*
X167000000Y-72500000D03*
D26*
X145140000Y-75720000D03*
X145140000Y-78260000D03*
X145140000Y-80800000D03*
X145140000Y-83340000D03*
X145140000Y-85880000D03*
X145140000Y-88420000D03*
X145140000Y-90960000D03*
X145140000Y-93500000D03*
X168000000Y-93500000D03*
X168000000Y-90960000D03*
X168000000Y-88420000D03*
X168000000Y-85880000D03*
X168000000Y-83340000D03*
X168000000Y-80800000D03*
X168000000Y-78260000D03*
X168000000Y-75720000D03*
%LPD*%
M02*
