M48
; DRILL file {KiCad 9.0.2} date 2025-07-08T18:22:23-0300
; FORMAT={-:-/ absolute / metric / decimal}
; #@! TF.CreationDate,2025-07-08T18:22:23-03:00
; #@! TF.GenerationSoftware,Kicad,Pcbnew,9.0.2
; #@! TF.FileFunction,Plated,1,2,PTH
FMAT,2
METRIC
; #@! TA.AperFunction,Plated,PTH,ViaDrill
T1C0.300
; #@! TA.AperFunction,Plated,PTH,ComponentDrill
T2C1.000
; #@! TA.AperFunction,Plated,PTH,ComponentDrill
T3C1.020
%
G90
G05
T1
X155.487Y-94.155
X157.0Y-84.5
X158.0Y-92.5
X158.5Y-89.5
X158.5Y-90.5
X158.705Y-86.205
X160.0Y-92.5
X162.0Y-93.5
X162.75Y-89.75
X164.5Y-77.0
X165.5Y-89.5
X165.513Y-78.856
T2
X145.14Y-75.72
X145.14Y-78.26
X145.14Y-80.8
X145.14Y-83.34
X145.14Y-85.88
X145.14Y-88.42
X145.14Y-90.96
X145.14Y-93.5
X164.46Y-72.5
X167.0Y-72.5
X168.0Y-75.72
X168.0Y-78.26
X168.0Y-80.8
X168.0Y-83.34
X168.0Y-85.88
X168.0Y-88.42
X168.0Y-90.96
X168.0Y-93.5
T3
X150.5Y-105.96
X153.5Y-105.96
X156.5Y-105.96
X159.5Y-105.96
X162.5Y-105.96
M30
