G04 #@! TF.GenerationSoftware,KiCad,Pcbnew,9.0.2*
G04 #@! TF.CreationDate,2025-07-08T18:24:21-03:00*
G04 #@! TF.ProjectId,BottomBoardCam,426f7474-6f6d-4426-9f61-726443616d2e,rev?*
G04 #@! TF.SameCoordinates,Original*
G04 #@! TF.FileFunction,Copper,L2,Bot*
G04 #@! TF.FilePolarity,Positive*
%FSLAX46Y46*%
G04 Gerber Fmt 4.6, Leading zero omitted, Abs format (unit mm)*
G04 Created by KiCad (PCBNEW 9.0.2) date 2025-07-08 18:24:21*
%MOMM*%
%LPD*%
G01*
G04 APERTURE LIST*
G04 #@! TA.AperFunction,ComponentPad*
%ADD10C,1.520000*%
G04 #@! TD*
G04 #@! TA.AperFunction,ComponentPad*
%ADD11R,1.520000X1.520000*%
G04 #@! TD*
G04 #@! TA.AperFunction,ComponentPad*
%ADD12R,1.700000X1.700000*%
G04 #@! TD*
G04 #@! TA.AperFunction,ComponentPad*
%ADD13C,1.700000*%
G04 #@! TD*
G04 #@! TA.AperFunction,ComponentPad*
%ADD14O,2.844800X1.422400*%
G04 #@! TD*
G04 #@! TA.AperFunction,ViaPad*
%ADD15C,0.600000*%
G04 #@! TD*
G04 #@! TA.AperFunction,Conductor*
%ADD16C,0.250000*%
G04 #@! TD*
G04 #@! TA.AperFunction,Conductor*
%ADD17C,0.200000*%
G04 #@! TD*
G04 APERTURE END LIST*
D10*
X162500000Y-105960000D03*
X159500000Y-105960000D03*
X156500000Y-105960000D03*
X153500000Y-105960000D03*
D11*
X150500000Y-105960000D03*
D12*
X164460000Y-72500000D03*
D13*
X167000000Y-72500000D03*
D14*
X145140000Y-75720000D03*
X145140000Y-78260000D03*
X145140000Y-80800000D03*
X145140000Y-83340000D03*
X145140000Y-85880000D03*
X145140000Y-88420000D03*
X145140000Y-90960000D03*
X145140000Y-93500000D03*
X168000000Y-93500000D03*
X168000000Y-90960000D03*
X168000000Y-88420000D03*
X168000000Y-85880000D03*
X168000000Y-83340000D03*
X168000000Y-80800000D03*
X168000000Y-78260000D03*
X168000000Y-75720000D03*
D15*
X162750000Y-89750000D03*
X165500000Y-89500000D03*
X165512621Y-78856288D03*
X158500000Y-89500000D03*
X158500000Y-90500000D03*
X160000000Y-92500000D03*
X158000000Y-92500000D03*
X158705000Y-86205000D03*
X164500000Y-77000000D03*
X155487142Y-94155487D03*
X157000000Y-84500000D03*
X162000000Y-93500000D03*
D16*
X162750000Y-89750000D02*
X162750000Y-95750000D01*
X162750000Y-95750000D02*
X156500000Y-102000000D01*
X156500000Y-102000000D02*
X156500000Y-105960000D01*
X165512621Y-89487379D02*
X165500000Y-89500000D01*
X165512621Y-78856288D02*
X165512621Y-89487379D01*
X160000000Y-92500000D02*
X158500000Y-91000000D01*
X158500000Y-91000000D02*
X158500000Y-90500000D01*
X158000000Y-92500000D02*
X157500000Y-92000000D01*
X157500000Y-92000000D02*
X157500000Y-90500000D01*
X157500000Y-90500000D02*
X158500000Y-89500000D01*
D17*
X148760000Y-78260000D02*
X145140000Y-78260000D01*
X149500000Y-83500000D02*
X149500000Y-79000000D01*
X152205000Y-86205000D02*
X149500000Y-83500000D01*
X149500000Y-79000000D02*
X148760000Y-78260000D01*
X158705000Y-86205000D02*
X152205000Y-86205000D01*
D16*
X164500000Y-90000000D02*
X168000000Y-93500000D01*
X164500000Y-77000000D02*
X164500000Y-90000000D01*
D17*
X151000000Y-79000000D02*
X152500000Y-77500000D01*
X166500000Y-74500000D02*
X167000000Y-74000000D01*
X158500000Y-77500000D02*
X159500000Y-76500000D01*
X160000000Y-87000000D02*
X160000000Y-85500000D01*
X159500000Y-76500000D02*
X163512248Y-76500000D01*
X155487142Y-89012858D02*
X157500000Y-87000000D01*
X163756124Y-76243876D02*
X165500000Y-74500000D01*
X153500000Y-85500000D02*
X151000000Y-83000000D01*
X151000000Y-83000000D02*
X151000000Y-79000000D01*
X163756124Y-76256124D02*
X163756124Y-76243876D01*
X167000000Y-74000000D02*
X167000000Y-72500000D01*
X155487142Y-94155487D02*
X155487142Y-89012858D01*
X157500000Y-87000000D02*
X160000000Y-87000000D01*
X152500000Y-77500000D02*
X158500000Y-77500000D01*
X160000000Y-85500000D02*
X153500000Y-85500000D01*
X165500000Y-74500000D02*
X166500000Y-74500000D01*
X163512248Y-76500000D02*
X163756124Y-76256124D01*
D16*
X164894702Y-75720000D02*
X168000000Y-75720000D01*
X162000000Y-78614702D02*
X164894702Y-75720000D01*
X162000000Y-84500000D02*
X162000000Y-78614702D01*
X162000000Y-84500000D02*
X157000000Y-84500000D01*
X162000000Y-93500000D02*
X162000000Y-84500000D01*
D17*
X146000000Y-72500000D02*
X164460000Y-72500000D01*
X145140000Y-75720000D02*
X145140000Y-73360000D01*
X145140000Y-73360000D02*
X146000000Y-72500000D01*
M02*
