G04 #@! TF.GenerationSoftware,KiCad,Pcbnew,9.0.2*
G04 #@! TF.CreationDate,2025-07-08T18:24:21-03:00*
G04 #@! TF.ProjectId,BottomBoardCam,426f7474-6f6d-4426-9f61-726443616d2e,rev?*
G04 #@! TF.SameCoordinates,Original*
G04 #@! TF.FileFunction,Copper,L1,Top*
G04 #@! TF.FilePolarity,Positive*
%FSLAX46Y46*%
G04 Gerber Fmt 4.6, Leading zero omitted, Abs format (unit mm)*
G04 Created by KiCad (PCBNEW 9.0.2) date 2025-07-08 18:24:21*
%MOMM*%
%LPD*%
G01*
G04 APERTURE LIST*
G04 Aperture macros list*
%AMRoundRect*
0 Rectangle with rounded corners*
0 $1 Rounding radius*
0 $2 $3 $4 $5 $6 $7 $8 $9 X,Y pos of 4 corners*
0 Add a 4 corners polygon primitive as box body*
4,1,4,$2,$3,$4,$5,$6,$7,$8,$9,$2,$3,0*
0 Add four circle primitives for the rounded corners*
1,1,$1+$1,$2,$3*
1,1,$1+$1,$4,$5*
1,1,$1+$1,$6,$7*
1,1,$1+$1,$8,$9*
0 Add four rect primitives between the rounded corners*
20,1,$1+$1,$2,$3,$4,$5,0*
20,1,$1+$1,$4,$5,$6,$7,0*
20,1,$1+$1,$6,$7,$8,$9,0*
20,1,$1+$1,$8,$9,$2,$3,0*%
G04 Aperture macros list end*
G04 #@! TA.AperFunction,SMDPad,CuDef*
%ADD10RoundRect,0.250000X0.475000X-0.250000X0.475000X0.250000X-0.475000X0.250000X-0.475000X-0.250000X0*%
G04 #@! TD*
G04 #@! TA.AperFunction,SMDPad,CuDef*
%ADD11RoundRect,0.250000X-0.450000X0.262500X-0.450000X-0.262500X0.450000X-0.262500X0.450000X0.262500X0*%
G04 #@! TD*
G04 #@! TA.AperFunction,SMDPad,CuDef*
%ADD12RoundRect,0.250000X0.262500X0.450000X-0.262500X0.450000X-0.262500X-0.450000X0.262500X-0.450000X0*%
G04 #@! TD*
G04 #@! TA.AperFunction,ComponentPad*
%ADD13C,1.520000*%
G04 #@! TD*
G04 #@! TA.AperFunction,ComponentPad*
%ADD14R,1.520000X1.520000*%
G04 #@! TD*
G04 #@! TA.AperFunction,SMDPad,CuDef*
%ADD15RoundRect,0.250000X-0.262500X-0.450000X0.262500X-0.450000X0.262500X0.450000X-0.262500X0.450000X0*%
G04 #@! TD*
G04 #@! TA.AperFunction,SMDPad,CuDef*
%ADD16RoundRect,0.150000X-0.587500X-0.150000X0.587500X-0.150000X0.587500X0.150000X-0.587500X0.150000X0*%
G04 #@! TD*
G04 #@! TA.AperFunction,SMDPad,CuDef*
%ADD17RoundRect,0.075000X0.075000X-0.125000X0.075000X0.125000X-0.075000X0.125000X-0.075000X-0.125000X0*%
G04 #@! TD*
G04 #@! TA.AperFunction,SMDPad,CuDef*
%ADD18R,1.750000X0.450000*%
G04 #@! TD*
G04 #@! TA.AperFunction,ComponentPad*
%ADD19R,1.700000X1.700000*%
G04 #@! TD*
G04 #@! TA.AperFunction,ComponentPad*
%ADD20C,1.700000*%
G04 #@! TD*
G04 #@! TA.AperFunction,ComponentPad*
%ADD21O,2.844800X1.422400*%
G04 #@! TD*
G04 #@! TA.AperFunction,ViaPad*
%ADD22C,0.600000*%
G04 #@! TD*
G04 #@! TA.AperFunction,Conductor*
%ADD23C,0.250000*%
G04 #@! TD*
G04 #@! TA.AperFunction,Conductor*
%ADD24C,0.200000*%
G04 #@! TD*
G04 APERTURE END LIST*
D10*
X146500000Y-97900000D03*
X146500000Y-96000000D03*
D11*
X149000000Y-97825000D03*
X149000000Y-96000000D03*
D12*
X149000000Y-100000000D03*
X150825000Y-100000000D03*
D13*
X162500000Y-105960000D03*
X159500000Y-105960000D03*
X156500000Y-105960000D03*
X153500000Y-105960000D03*
D14*
X150500000Y-105960000D03*
D15*
X163587500Y-93500000D03*
X165412500Y-93500000D03*
D16*
X160500000Y-76050000D03*
X160500000Y-77950000D03*
X162375000Y-77000000D03*
D17*
X163000000Y-87025000D03*
X163000000Y-86525000D03*
D15*
X158112500Y-74000000D03*
X159937500Y-74000000D03*
D16*
X153125000Y-94550000D03*
X153125000Y-96450000D03*
X155000000Y-95500000D03*
X152000000Y-75650000D03*
X152000000Y-77550000D03*
X153875000Y-76600000D03*
D15*
X149850000Y-73650000D03*
X151675000Y-73650000D03*
D11*
X149500000Y-91675000D03*
X149500000Y-93500000D03*
D18*
X152970000Y-81655000D03*
X152970000Y-82305000D03*
X152970000Y-82955000D03*
X152970000Y-83605000D03*
X152970000Y-84255000D03*
X152970000Y-84905000D03*
X152970000Y-85555000D03*
X152970000Y-86205000D03*
X152970000Y-86855000D03*
X152970000Y-87505000D03*
X152970000Y-88155000D03*
X152970000Y-88805000D03*
X152970000Y-89455000D03*
X152970000Y-90105000D03*
X160170000Y-90105000D03*
X160170000Y-89455000D03*
X160170000Y-88805000D03*
X160170000Y-88155000D03*
X160170000Y-87505000D03*
X160170000Y-86855000D03*
X160170000Y-86205000D03*
X160170000Y-85555000D03*
X160170000Y-84905000D03*
X160170000Y-84255000D03*
X160170000Y-83605000D03*
X160170000Y-82955000D03*
X160170000Y-82305000D03*
X160170000Y-81655000D03*
D19*
X164460000Y-72500000D03*
D20*
X167000000Y-72500000D03*
D21*
X145140000Y-75720000D03*
X145140000Y-78260000D03*
X145140000Y-80800000D03*
X145140000Y-83340000D03*
X145140000Y-85880000D03*
X145140000Y-88420000D03*
X145140000Y-90960000D03*
X145140000Y-93500000D03*
X168000000Y-93500000D03*
X168000000Y-90960000D03*
X168000000Y-88420000D03*
X168000000Y-85880000D03*
X168000000Y-83340000D03*
X168000000Y-80800000D03*
X168000000Y-78260000D03*
X168000000Y-75720000D03*
D22*
X162750000Y-89750000D03*
X165500000Y-89500000D03*
X165512621Y-78856288D03*
X158500000Y-89500000D03*
X158500000Y-90500000D03*
X160000000Y-92500000D03*
X158000000Y-92500000D03*
X158705000Y-86205000D03*
X164500000Y-77000000D03*
X155487142Y-94155487D03*
X157000000Y-84500000D03*
X162000000Y-93500000D03*
D23*
X163000000Y-89500000D02*
X162750000Y-89750000D01*
X165500000Y-89500000D02*
X163000000Y-89500000D01*
D24*
X165500000Y-73540000D02*
X165500000Y-79000000D01*
X164460000Y-72500000D02*
X165500000Y-73540000D01*
D23*
X158895000Y-90105000D02*
X158500000Y-90500000D01*
X160170000Y-90105000D02*
X158895000Y-90105000D01*
X158545000Y-89455000D02*
X158500000Y-89500000D01*
X160170000Y-89455000D02*
X158545000Y-89455000D01*
X160000000Y-93000000D02*
X160000000Y-92500000D01*
X162500000Y-105960000D02*
X162500000Y-95500000D01*
X162500000Y-95500000D02*
X160000000Y-93000000D01*
X159500000Y-94000000D02*
X158000000Y-92500000D01*
X159500000Y-105960000D02*
X159500000Y-94000000D01*
D24*
X152970000Y-84255000D02*
X155755000Y-84255000D01*
X153500000Y-105960000D02*
X153500000Y-96825000D01*
X153500000Y-96825000D02*
X153125000Y-96450000D01*
X146500000Y-96000000D02*
X146500000Y-95000000D01*
X146500000Y-95000000D02*
X149011500Y-92488500D01*
X150185160Y-92488500D02*
X151055000Y-91618660D01*
X149011500Y-92488500D02*
X150185160Y-92488500D01*
X151055000Y-91618660D02*
X151055000Y-85555000D01*
X149000000Y-96000000D02*
X152675000Y-96000000D01*
X152675000Y-96000000D02*
X153125000Y-96450000D01*
X146500000Y-96000000D02*
X149000000Y-96000000D01*
X149000000Y-97825000D02*
X146575000Y-97825000D01*
X146575000Y-97825000D02*
X146500000Y-97900000D01*
X149000000Y-100000000D02*
X149000000Y-97825000D01*
X150500000Y-105960000D02*
X150500000Y-100325000D01*
X150500000Y-100325000D02*
X150825000Y-100000000D01*
X149500000Y-79000000D02*
X148760000Y-78260000D01*
X153125000Y-95929468D02*
X154500000Y-94554468D01*
X154500000Y-85500000D02*
X153025000Y-85500000D01*
X148760000Y-78260000D02*
X145140000Y-78260000D01*
X163000000Y-86525000D02*
X162680000Y-86205000D01*
X151055000Y-85555000D02*
X149500000Y-84000000D01*
X162680000Y-86205000D02*
X160170000Y-86205000D01*
X152970000Y-85555000D02*
X151055000Y-85555000D01*
X154500000Y-94554468D02*
X154500000Y-85500000D01*
X153025000Y-85500000D02*
X152970000Y-85555000D01*
X153125000Y-96450000D02*
X153125000Y-95929468D01*
X160170000Y-86205000D02*
X158705000Y-86205000D01*
X149500000Y-84000000D02*
X149500000Y-79000000D01*
D23*
X162000000Y-88805000D02*
X162000000Y-87500000D01*
D24*
X163000000Y-87025000D02*
X162475000Y-87025000D01*
X162475000Y-87025000D02*
X162000000Y-87500000D01*
D23*
X161995000Y-87505000D02*
X162000000Y-87500000D01*
X160170000Y-87505000D02*
X161995000Y-87505000D01*
X162000000Y-88805000D02*
X160170000Y-88805000D01*
D24*
X150802000Y-72826340D02*
X150802000Y-76352000D01*
X151000000Y-81492900D02*
X151812100Y-82305000D01*
X151000000Y-81492900D02*
X151000000Y-78550000D01*
X158112500Y-73162500D02*
X157500000Y-72550000D01*
X158112500Y-74000000D02*
X158112500Y-73162500D01*
X150802000Y-76352000D02*
X152000000Y-77550000D01*
X157500000Y-72550000D02*
X151078340Y-72550000D01*
X151812100Y-82305000D02*
X152970000Y-82305000D01*
X152000000Y-77550000D02*
X151000000Y-78550000D01*
X151078340Y-72550000D02*
X150802000Y-72826340D01*
X152000000Y-75650000D02*
X151675000Y-75325000D01*
X151675000Y-75325000D02*
X151675000Y-73650000D01*
D23*
X166700000Y-79500000D02*
X168000000Y-80800000D01*
X153875000Y-76600000D02*
X157600000Y-76600000D01*
X157600000Y-76600000D02*
X160500000Y-79500000D01*
X160500000Y-79500000D02*
X166700000Y-79500000D01*
X160500000Y-76050000D02*
X160500000Y-74562500D01*
X160500000Y-74562500D02*
X159937500Y-74000000D01*
D24*
X151561240Y-71500000D02*
X158936160Y-71500000D01*
X152970000Y-82955000D02*
X151895000Y-82955000D01*
X149850000Y-73650000D02*
X149850000Y-73211240D01*
X150401000Y-74201000D02*
X149850000Y-73650000D01*
X161596532Y-76399000D02*
X160500000Y-77495532D01*
X149850000Y-73211240D02*
X151561240Y-71500000D01*
X161596532Y-74160372D02*
X161596532Y-76399000D01*
X160500000Y-77495532D02*
X160500000Y-77950000D01*
X150401000Y-81461000D02*
X150401000Y-74201000D01*
X151895000Y-82955000D02*
X150401000Y-81461000D01*
X158936160Y-71500000D02*
X161596532Y-74160372D01*
X165412500Y-93500000D02*
X168000000Y-93500000D01*
D23*
X162375000Y-77000000D02*
X164500000Y-77000000D01*
D24*
X150550000Y-94550000D02*
X149500000Y-93500000D01*
X153125000Y-94550000D02*
X150550000Y-94550000D01*
X155000000Y-95500000D02*
X155500000Y-95000000D01*
X155500000Y-95000000D02*
X155500000Y-94000000D01*
X158355000Y-86855000D02*
X160170000Y-86855000D01*
D23*
X163587500Y-93500000D02*
X162000000Y-93500000D01*
D24*
X156105000Y-83605000D02*
X157000000Y-84500000D01*
X158000000Y-86500000D02*
X158355000Y-86855000D01*
X158000000Y-85500000D02*
X158000000Y-86500000D01*
X157000000Y-84500000D02*
X158000000Y-85500000D01*
X152970000Y-83605000D02*
X156105000Y-83605000D01*
X149500000Y-90500000D02*
X147420000Y-88420000D01*
X147420000Y-88420000D02*
X145140000Y-88420000D01*
X149500000Y-91675000D02*
X149500000Y-90500000D01*
D23*
X152970000Y-81655000D02*
X156345000Y-81655000D01*
X164500000Y-81500000D02*
X164500000Y-87500000D01*
X157500000Y-80500000D02*
X163500000Y-80500000D01*
X164500000Y-87500000D02*
X165420000Y-88420000D01*
X163500000Y-80500000D02*
X164500000Y-81500000D01*
X156345000Y-81655000D02*
X157500000Y-80500000D01*
X165420000Y-88420000D02*
X168000000Y-88420000D01*
D24*
X167460000Y-91500000D02*
X168000000Y-90960000D01*
X157500000Y-86000000D02*
X157500000Y-91000000D01*
X157500000Y-91000000D02*
X158000000Y-91500000D01*
X158000000Y-91500000D02*
X167460000Y-91500000D01*
X155755000Y-84255000D02*
X157500000Y-86000000D01*
M02*
