%TF.GenerationSoftware,KiCad,Pcbnew,9.0.3-9.0.3-0~ubuntu24.04.1*%
%TF.CreationDate,2025-09-07T11:30:27-03:00*%
%TF.ProjectId,SvoCamBoardBottom,53766f43-616d-4426-9f61-7264426f7474,rev?*%
%TF.SameCoordinates,Original*%
%TF.FileFunction,Legend,Top*%
%TF.FilePolarity,Positive*%
%FSLAX46Y46*%
G04 Gerber Fmt 4.6, Leading zero omitted, Abs format (unit mm)*
G04 Created by KiCad (PCBNEW 9.0.3-9.0.3-0~ubuntu24.04.1) date 2025-09-07 11:30:27*
%MOMM*%
%LPD*%
G01*
G04 APERTURE LIST*
%ADD10C,0.150000*%
%ADD11C,0.120000*%
%ADD12C,0.127000*%
G04 APERTURE END LIST*
D10*
X167731715Y-107428569D02*
X167649810Y-107357141D01*
X167649810Y-107357141D02*
X167567905Y-107214284D01*
X167567905Y-107214284D02*
X167567905Y-106857141D01*
X167567905Y-106857141D02*
X167649810Y-106714284D01*
X167649810Y-106714284D02*
X167731715Y-106642855D01*
X167731715Y-106642855D02*
X167895524Y-106571426D01*
X167895524Y-106571426D02*
X168059334Y-106571426D01*
X168059334Y-106571426D02*
X168305048Y-106642855D01*
X168305048Y-106642855D02*
X169287905Y-107499998D01*
X169287905Y-107499998D02*
X169287905Y-106571426D01*
X167567905Y-105214284D02*
X167567905Y-105928570D01*
X167567905Y-105928570D02*
X168386953Y-105999998D01*
X168386953Y-105999998D02*
X168305048Y-105928570D01*
X168305048Y-105928570D02*
X168223143Y-105785713D01*
X168223143Y-105785713D02*
X168223143Y-105428570D01*
X168223143Y-105428570D02*
X168305048Y-105285713D01*
X168305048Y-105285713D02*
X168386953Y-105214284D01*
X168386953Y-105214284D02*
X168550762Y-105142855D01*
X168550762Y-105142855D02*
X168960286Y-105142855D01*
X168960286Y-105142855D02*
X169124096Y-105214284D01*
X169124096Y-105214284D02*
X169206001Y-105285713D01*
X169206001Y-105285713D02*
X169287905Y-105428570D01*
X169287905Y-105428570D02*
X169287905Y-105785713D01*
X169287905Y-105785713D02*
X169206001Y-105928570D01*
X169206001Y-105928570D02*
X169124096Y-105999998D01*
X167731715Y-104571427D02*
X167649810Y-104499999D01*
X167649810Y-104499999D02*
X167567905Y-104357142D01*
X167567905Y-104357142D02*
X167567905Y-103999999D01*
X167567905Y-103999999D02*
X167649810Y-103857142D01*
X167649810Y-103857142D02*
X167731715Y-103785713D01*
X167731715Y-103785713D02*
X167895524Y-103714284D01*
X167895524Y-103714284D02*
X168059334Y-103714284D01*
X168059334Y-103714284D02*
X168305048Y-103785713D01*
X168305048Y-103785713D02*
X169287905Y-104642856D01*
X169287905Y-104642856D02*
X169287905Y-103714284D01*
X167567905Y-102785713D02*
X167567905Y-102642856D01*
X167567905Y-102642856D02*
X167649810Y-102499999D01*
X167649810Y-102499999D02*
X167731715Y-102428571D01*
X167731715Y-102428571D02*
X167895524Y-102357142D01*
X167895524Y-102357142D02*
X168223143Y-102285713D01*
X168223143Y-102285713D02*
X168632667Y-102285713D01*
X168632667Y-102285713D02*
X168960286Y-102357142D01*
X168960286Y-102357142D02*
X169124096Y-102428571D01*
X169124096Y-102428571D02*
X169206001Y-102499999D01*
X169206001Y-102499999D02*
X169287905Y-102642856D01*
X169287905Y-102642856D02*
X169287905Y-102785713D01*
X169287905Y-102785713D02*
X169206001Y-102928571D01*
X169206001Y-102928571D02*
X169124096Y-102999999D01*
X169124096Y-102999999D02*
X168960286Y-103071428D01*
X168960286Y-103071428D02*
X168632667Y-103142856D01*
X168632667Y-103142856D02*
X168223143Y-103142856D01*
X168223143Y-103142856D02*
X167895524Y-103071428D01*
X167895524Y-103071428D02*
X167731715Y-102999999D01*
X167731715Y-102999999D02*
X167649810Y-102928571D01*
X167649810Y-102928571D02*
X167567905Y-102785713D01*
X167567905Y-101357142D02*
X167567905Y-101214285D01*
X167567905Y-101214285D02*
X167649810Y-101071428D01*
X167649810Y-101071428D02*
X167731715Y-101000000D01*
X167731715Y-101000000D02*
X167895524Y-100928571D01*
X167895524Y-100928571D02*
X168223143Y-100857142D01*
X168223143Y-100857142D02*
X168632667Y-100857142D01*
X168632667Y-100857142D02*
X168960286Y-100928571D01*
X168960286Y-100928571D02*
X169124096Y-101000000D01*
X169124096Y-101000000D02*
X169206001Y-101071428D01*
X169206001Y-101071428D02*
X169287905Y-101214285D01*
X169287905Y-101214285D02*
X169287905Y-101357142D01*
X169287905Y-101357142D02*
X169206001Y-101500000D01*
X169206001Y-101500000D02*
X169124096Y-101571428D01*
X169124096Y-101571428D02*
X168960286Y-101642857D01*
X168960286Y-101642857D02*
X168632667Y-101714285D01*
X168632667Y-101714285D02*
X168223143Y-101714285D01*
X168223143Y-101714285D02*
X167895524Y-101642857D01*
X167895524Y-101642857D02*
X167731715Y-101571428D01*
X167731715Y-101571428D02*
X167649810Y-101500000D01*
X167649810Y-101500000D02*
X167567905Y-101357142D01*
X167731715Y-100285714D02*
X167649810Y-100214286D01*
X167649810Y-100214286D02*
X167567905Y-100071429D01*
X167567905Y-100071429D02*
X167567905Y-99714286D01*
X167567905Y-99714286D02*
X167649810Y-99571429D01*
X167649810Y-99571429D02*
X167731715Y-99500000D01*
X167731715Y-99500000D02*
X167895524Y-99428571D01*
X167895524Y-99428571D02*
X168059334Y-99428571D01*
X168059334Y-99428571D02*
X168305048Y-99500000D01*
X168305048Y-99500000D02*
X169287905Y-100357143D01*
X169287905Y-100357143D02*
X169287905Y-99428571D01*
X169451715Y-99142858D02*
X169451715Y-98000000D01*
X169206001Y-97714286D02*
X169287905Y-97571429D01*
X169287905Y-97571429D02*
X169287905Y-97285715D01*
X169287905Y-97285715D02*
X169206001Y-97142858D01*
X169206001Y-97142858D02*
X169042191Y-97071429D01*
X169042191Y-97071429D02*
X168960286Y-97071429D01*
X168960286Y-97071429D02*
X168796477Y-97142858D01*
X168796477Y-97142858D02*
X168714572Y-97285715D01*
X168714572Y-97285715D02*
X168714572Y-97500001D01*
X168714572Y-97500001D02*
X168632667Y-97642858D01*
X168632667Y-97642858D02*
X168468858Y-97714286D01*
X168468858Y-97714286D02*
X168386953Y-97714286D01*
X168386953Y-97714286D02*
X168223143Y-97642858D01*
X168223143Y-97642858D02*
X168141239Y-97500001D01*
X168141239Y-97500001D02*
X168141239Y-97285715D01*
X168141239Y-97285715D02*
X168223143Y-97142858D01*
X168141239Y-96571429D02*
X169287905Y-96214286D01*
X169287905Y-96214286D02*
X168141239Y-95857143D01*
X169287905Y-95071429D02*
X169206001Y-95214286D01*
X169206001Y-95214286D02*
X169124096Y-95285715D01*
X169124096Y-95285715D02*
X168960286Y-95357143D01*
X168960286Y-95357143D02*
X168468858Y-95357143D01*
X168468858Y-95357143D02*
X168305048Y-95285715D01*
X168305048Y-95285715D02*
X168223143Y-95214286D01*
X168223143Y-95214286D02*
X168141239Y-95071429D01*
X168141239Y-95071429D02*
X168141239Y-94857143D01*
X168141239Y-94857143D02*
X168223143Y-94714286D01*
X168223143Y-94714286D02*
X168305048Y-94642858D01*
X168305048Y-94642858D02*
X168468858Y-94571429D01*
X168468858Y-94571429D02*
X168960286Y-94571429D01*
X168960286Y-94571429D02*
X169124096Y-94642858D01*
X169124096Y-94642858D02*
X169206001Y-94714286D01*
X169206001Y-94714286D02*
X169287905Y-94857143D01*
X169287905Y-94857143D02*
X169287905Y-95071429D01*
X163304819Y-93579166D02*
X162828628Y-93912499D01*
X163304819Y-94150594D02*
X162304819Y-94150594D01*
X162304819Y-94150594D02*
X162304819Y-93769642D01*
X162304819Y-93769642D02*
X162352438Y-93674404D01*
X162352438Y-93674404D02*
X162400057Y-93626785D01*
X162400057Y-93626785D02*
X162495295Y-93579166D01*
X162495295Y-93579166D02*
X162638152Y-93579166D01*
X162638152Y-93579166D02*
X162733390Y-93626785D01*
X162733390Y-93626785D02*
X162781009Y-93674404D01*
X162781009Y-93674404D02*
X162828628Y-93769642D01*
X162828628Y-93769642D02*
X162828628Y-94150594D01*
X163304819Y-92626785D02*
X163304819Y-93198213D01*
X163304819Y-92912499D02*
X162304819Y-92912499D01*
X162304819Y-92912499D02*
X162447676Y-93007737D01*
X162447676Y-93007737D02*
X162542914Y-93102975D01*
X162542914Y-93102975D02*
X162590533Y-93198213D01*
X162904761Y-74150057D02*
X162809523Y-74102438D01*
X162809523Y-74102438D02*
X162714285Y-74007200D01*
X162714285Y-74007200D02*
X162571428Y-73864342D01*
X162571428Y-73864342D02*
X162476190Y-73816723D01*
X162476190Y-73816723D02*
X162380952Y-73816723D01*
X162428571Y-74054819D02*
X162333333Y-74007200D01*
X162333333Y-74007200D02*
X162238095Y-73911961D01*
X162238095Y-73911961D02*
X162190476Y-73721485D01*
X162190476Y-73721485D02*
X162190476Y-73388152D01*
X162190476Y-73388152D02*
X162238095Y-73197676D01*
X162238095Y-73197676D02*
X162333333Y-73102438D01*
X162333333Y-73102438D02*
X162428571Y-73054819D01*
X162428571Y-73054819D02*
X162619047Y-73054819D01*
X162619047Y-73054819D02*
X162714285Y-73102438D01*
X162714285Y-73102438D02*
X162809523Y-73197676D01*
X162809523Y-73197676D02*
X162857142Y-73388152D01*
X162857142Y-73388152D02*
X162857142Y-73721485D01*
X162857142Y-73721485D02*
X162809523Y-73911961D01*
X162809523Y-73911961D02*
X162714285Y-74007200D01*
X162714285Y-74007200D02*
X162619047Y-74054819D01*
X162619047Y-74054819D02*
X162428571Y-74054819D01*
X163190476Y-73054819D02*
X163809523Y-73054819D01*
X163809523Y-73054819D02*
X163476190Y-73435771D01*
X163476190Y-73435771D02*
X163619047Y-73435771D01*
X163619047Y-73435771D02*
X163714285Y-73483390D01*
X163714285Y-73483390D02*
X163761904Y-73531009D01*
X163761904Y-73531009D02*
X163809523Y-73626247D01*
X163809523Y-73626247D02*
X163809523Y-73864342D01*
X163809523Y-73864342D02*
X163761904Y-73959580D01*
X163761904Y-73959580D02*
X163714285Y-74007200D01*
X163714285Y-74007200D02*
X163619047Y-74054819D01*
X163619047Y-74054819D02*
X163333333Y-74054819D01*
X163333333Y-74054819D02*
X163238095Y-74007200D01*
X163238095Y-74007200D02*
X163190476Y-73959580D01*
X155508333Y-77954819D02*
X155175000Y-77478628D01*
X154936905Y-77954819D02*
X154936905Y-76954819D01*
X154936905Y-76954819D02*
X155317857Y-76954819D01*
X155317857Y-76954819D02*
X155413095Y-77002438D01*
X155413095Y-77002438D02*
X155460714Y-77050057D01*
X155460714Y-77050057D02*
X155508333Y-77145295D01*
X155508333Y-77145295D02*
X155508333Y-77288152D01*
X155508333Y-77288152D02*
X155460714Y-77383390D01*
X155460714Y-77383390D02*
X155413095Y-77431009D01*
X155413095Y-77431009D02*
X155317857Y-77478628D01*
X155317857Y-77478628D02*
X154936905Y-77478628D01*
X156365476Y-76954819D02*
X156175000Y-76954819D01*
X156175000Y-76954819D02*
X156079762Y-77002438D01*
X156079762Y-77002438D02*
X156032143Y-77050057D01*
X156032143Y-77050057D02*
X155936905Y-77192914D01*
X155936905Y-77192914D02*
X155889286Y-77383390D01*
X155889286Y-77383390D02*
X155889286Y-77764342D01*
X155889286Y-77764342D02*
X155936905Y-77859580D01*
X155936905Y-77859580D02*
X155984524Y-77907200D01*
X155984524Y-77907200D02*
X156079762Y-77954819D01*
X156079762Y-77954819D02*
X156270238Y-77954819D01*
X156270238Y-77954819D02*
X156365476Y-77907200D01*
X156365476Y-77907200D02*
X156413095Y-77859580D01*
X156413095Y-77859580D02*
X156460714Y-77764342D01*
X156460714Y-77764342D02*
X156460714Y-77526247D01*
X156460714Y-77526247D02*
X156413095Y-77431009D01*
X156413095Y-77431009D02*
X156365476Y-77383390D01*
X156365476Y-77383390D02*
X156270238Y-77335771D01*
X156270238Y-77335771D02*
X156079762Y-77335771D01*
X156079762Y-77335771D02*
X155984524Y-77383390D01*
X155984524Y-77383390D02*
X155936905Y-77431009D01*
X155936905Y-77431009D02*
X155889286Y-77526247D01*
X142914819Y-71333333D02*
X143629104Y-71333333D01*
X143629104Y-71333333D02*
X143771961Y-71380952D01*
X143771961Y-71380952D02*
X143867200Y-71476190D01*
X143867200Y-71476190D02*
X143914819Y-71619047D01*
X143914819Y-71619047D02*
X143914819Y-71714285D01*
X142914819Y-70952380D02*
X142914819Y-70333333D01*
X142914819Y-70333333D02*
X143295771Y-70666666D01*
X143295771Y-70666666D02*
X143295771Y-70523809D01*
X143295771Y-70523809D02*
X143343390Y-70428571D01*
X143343390Y-70428571D02*
X143391009Y-70380952D01*
X143391009Y-70380952D02*
X143486247Y-70333333D01*
X143486247Y-70333333D02*
X143724342Y-70333333D01*
X143724342Y-70333333D02*
X143819580Y-70380952D01*
X143819580Y-70380952D02*
X143867200Y-70428571D01*
X143867200Y-70428571D02*
X143914819Y-70523809D01*
X143914819Y-70523809D02*
X143914819Y-70809523D01*
X143914819Y-70809523D02*
X143867200Y-70904761D01*
X143867200Y-70904761D02*
X143819580Y-70952380D01*
X160354819Y-97261904D02*
X161164342Y-97261904D01*
X161164342Y-97261904D02*
X161259580Y-97214285D01*
X161259580Y-97214285D02*
X161307200Y-97166666D01*
X161307200Y-97166666D02*
X161354819Y-97071428D01*
X161354819Y-97071428D02*
X161354819Y-96880952D01*
X161354819Y-96880952D02*
X161307200Y-96785714D01*
X161307200Y-96785714D02*
X161259580Y-96738095D01*
X161259580Y-96738095D02*
X161164342Y-96690476D01*
X161164342Y-96690476D02*
X160354819Y-96690476D01*
X160354819Y-96309523D02*
X160354819Y-95690476D01*
X160354819Y-95690476D02*
X160735771Y-96023809D01*
X160735771Y-96023809D02*
X160735771Y-95880952D01*
X160735771Y-95880952D02*
X160783390Y-95785714D01*
X160783390Y-95785714D02*
X160831009Y-95738095D01*
X160831009Y-95738095D02*
X160926247Y-95690476D01*
X160926247Y-95690476D02*
X161164342Y-95690476D01*
X161164342Y-95690476D02*
X161259580Y-95738095D01*
X161259580Y-95738095D02*
X161307200Y-95785714D01*
X161307200Y-95785714D02*
X161354819Y-95880952D01*
X161354819Y-95880952D02*
X161354819Y-96166666D01*
X161354819Y-96166666D02*
X161307200Y-96261904D01*
X161307200Y-96261904D02*
X161259580Y-96309523D01*
X158920833Y-79804819D02*
X158587500Y-79328628D01*
X158349405Y-79804819D02*
X158349405Y-78804819D01*
X158349405Y-78804819D02*
X158730357Y-78804819D01*
X158730357Y-78804819D02*
X158825595Y-78852438D01*
X158825595Y-78852438D02*
X158873214Y-78900057D01*
X158873214Y-78900057D02*
X158920833Y-78995295D01*
X158920833Y-78995295D02*
X158920833Y-79138152D01*
X158920833Y-79138152D02*
X158873214Y-79233390D01*
X158873214Y-79233390D02*
X158825595Y-79281009D01*
X158825595Y-79281009D02*
X158730357Y-79328628D01*
X158730357Y-79328628D02*
X158349405Y-79328628D01*
X159254167Y-78804819D02*
X159873214Y-78804819D01*
X159873214Y-78804819D02*
X159539881Y-79185771D01*
X159539881Y-79185771D02*
X159682738Y-79185771D01*
X159682738Y-79185771D02*
X159777976Y-79233390D01*
X159777976Y-79233390D02*
X159825595Y-79281009D01*
X159825595Y-79281009D02*
X159873214Y-79376247D01*
X159873214Y-79376247D02*
X159873214Y-79614342D01*
X159873214Y-79614342D02*
X159825595Y-79709580D01*
X159825595Y-79709580D02*
X159777976Y-79757200D01*
X159777976Y-79757200D02*
X159682738Y-79804819D01*
X159682738Y-79804819D02*
X159397024Y-79804819D01*
X159397024Y-79804819D02*
X159301786Y-79757200D01*
X159301786Y-79757200D02*
X159254167Y-79709580D01*
X162904761Y-86050057D02*
X162809523Y-86002438D01*
X162809523Y-86002438D02*
X162714285Y-85907200D01*
X162714285Y-85907200D02*
X162571428Y-85764342D01*
X162571428Y-85764342D02*
X162476190Y-85716723D01*
X162476190Y-85716723D02*
X162380952Y-85716723D01*
X162428571Y-85954819D02*
X162333333Y-85907200D01*
X162333333Y-85907200D02*
X162238095Y-85811961D01*
X162238095Y-85811961D02*
X162190476Y-85621485D01*
X162190476Y-85621485D02*
X162190476Y-85288152D01*
X162190476Y-85288152D02*
X162238095Y-85097676D01*
X162238095Y-85097676D02*
X162333333Y-85002438D01*
X162333333Y-85002438D02*
X162428571Y-84954819D01*
X162428571Y-84954819D02*
X162619047Y-84954819D01*
X162619047Y-84954819D02*
X162714285Y-85002438D01*
X162714285Y-85002438D02*
X162809523Y-85097676D01*
X162809523Y-85097676D02*
X162857142Y-85288152D01*
X162857142Y-85288152D02*
X162857142Y-85621485D01*
X162857142Y-85621485D02*
X162809523Y-85811961D01*
X162809523Y-85811961D02*
X162714285Y-85907200D01*
X162714285Y-85907200D02*
X162619047Y-85954819D01*
X162619047Y-85954819D02*
X162428571Y-85954819D01*
X163809523Y-85954819D02*
X163238095Y-85954819D01*
X163523809Y-85954819D02*
X163523809Y-84954819D01*
X163523809Y-84954819D02*
X163428571Y-85097676D01*
X163428571Y-85097676D02*
X163333333Y-85192914D01*
X163333333Y-85192914D02*
X163238095Y-85240533D01*
X163414819Y-107333333D02*
X164129104Y-107333333D01*
X164129104Y-107333333D02*
X164271961Y-107380952D01*
X164271961Y-107380952D02*
X164367200Y-107476190D01*
X164367200Y-107476190D02*
X164414819Y-107619047D01*
X164414819Y-107619047D02*
X164414819Y-107714285D01*
X163510057Y-106904761D02*
X163462438Y-106857142D01*
X163462438Y-106857142D02*
X163414819Y-106761904D01*
X163414819Y-106761904D02*
X163414819Y-106523809D01*
X163414819Y-106523809D02*
X163462438Y-106428571D01*
X163462438Y-106428571D02*
X163510057Y-106380952D01*
X163510057Y-106380952D02*
X163605295Y-106333333D01*
X163605295Y-106333333D02*
X163700533Y-106333333D01*
X163700533Y-106333333D02*
X163843390Y-106380952D01*
X163843390Y-106380952D02*
X164414819Y-106952380D01*
X164414819Y-106952380D02*
X164414819Y-106333333D01*
X157358333Y-89509580D02*
X157310714Y-89557200D01*
X157310714Y-89557200D02*
X157167857Y-89604819D01*
X157167857Y-89604819D02*
X157072619Y-89604819D01*
X157072619Y-89604819D02*
X156929762Y-89557200D01*
X156929762Y-89557200D02*
X156834524Y-89461961D01*
X156834524Y-89461961D02*
X156786905Y-89366723D01*
X156786905Y-89366723D02*
X156739286Y-89176247D01*
X156739286Y-89176247D02*
X156739286Y-89033390D01*
X156739286Y-89033390D02*
X156786905Y-88842914D01*
X156786905Y-88842914D02*
X156834524Y-88747676D01*
X156834524Y-88747676D02*
X156929762Y-88652438D01*
X156929762Y-88652438D02*
X157072619Y-88604819D01*
X157072619Y-88604819D02*
X157167857Y-88604819D01*
X157167857Y-88604819D02*
X157310714Y-88652438D01*
X157310714Y-88652438D02*
X157358333Y-88700057D01*
X158310714Y-89604819D02*
X157739286Y-89604819D01*
X158025000Y-89604819D02*
X158025000Y-88604819D01*
X158025000Y-88604819D02*
X157929762Y-88747676D01*
X157929762Y-88747676D02*
X157834524Y-88842914D01*
X157834524Y-88842914D02*
X157739286Y-88890533D01*
X162534819Y-71333333D02*
X163249104Y-71333333D01*
X163249104Y-71333333D02*
X163391961Y-71380952D01*
X163391961Y-71380952D02*
X163487200Y-71476190D01*
X163487200Y-71476190D02*
X163534819Y-71619047D01*
X163534819Y-71619047D02*
X163534819Y-71714285D01*
X163534819Y-70333333D02*
X163534819Y-70904761D01*
X163534819Y-70619047D02*
X162534819Y-70619047D01*
X162534819Y-70619047D02*
X162677676Y-70714285D01*
X162677676Y-70714285D02*
X162772914Y-70809523D01*
X162772914Y-70809523D02*
X162820533Y-70904761D01*
X150333333Y-81454819D02*
X150000000Y-80978628D01*
X149761905Y-81454819D02*
X149761905Y-80454819D01*
X149761905Y-80454819D02*
X150142857Y-80454819D01*
X150142857Y-80454819D02*
X150238095Y-80502438D01*
X150238095Y-80502438D02*
X150285714Y-80550057D01*
X150285714Y-80550057D02*
X150333333Y-80645295D01*
X150333333Y-80645295D02*
X150333333Y-80788152D01*
X150333333Y-80788152D02*
X150285714Y-80883390D01*
X150285714Y-80883390D02*
X150238095Y-80931009D01*
X150238095Y-80931009D02*
X150142857Y-80978628D01*
X150142857Y-80978628D02*
X149761905Y-80978628D01*
X150714286Y-80550057D02*
X150761905Y-80502438D01*
X150761905Y-80502438D02*
X150857143Y-80454819D01*
X150857143Y-80454819D02*
X151095238Y-80454819D01*
X151095238Y-80454819D02*
X151190476Y-80502438D01*
X151190476Y-80502438D02*
X151238095Y-80550057D01*
X151238095Y-80550057D02*
X151285714Y-80645295D01*
X151285714Y-80645295D02*
X151285714Y-80740533D01*
X151285714Y-80740533D02*
X151238095Y-80883390D01*
X151238095Y-80883390D02*
X150666667Y-81454819D01*
X150666667Y-81454819D02*
X151285714Y-81454819D01*
X146713095Y-66739819D02*
X146713095Y-67549342D01*
X146713095Y-67549342D02*
X146760714Y-67644580D01*
X146760714Y-67644580D02*
X146808333Y-67692200D01*
X146808333Y-67692200D02*
X146903571Y-67739819D01*
X146903571Y-67739819D02*
X147094047Y-67739819D01*
X147094047Y-67739819D02*
X147189285Y-67692200D01*
X147189285Y-67692200D02*
X147236904Y-67644580D01*
X147236904Y-67644580D02*
X147284523Y-67549342D01*
X147284523Y-67549342D02*
X147284523Y-66739819D01*
X148284523Y-67739819D02*
X147713095Y-67739819D01*
X147998809Y-67739819D02*
X147998809Y-66739819D01*
X147998809Y-66739819D02*
X147903571Y-66882676D01*
X147903571Y-66882676D02*
X147808333Y-66977914D01*
X147808333Y-66977914D02*
X147713095Y-67025533D01*
X167206001Y-108285714D02*
X167287905Y-108071429D01*
X167287905Y-108071429D02*
X167287905Y-107714286D01*
X167287905Y-107714286D02*
X167206001Y-107571429D01*
X167206001Y-107571429D02*
X167124096Y-107500000D01*
X167124096Y-107500000D02*
X166960286Y-107428571D01*
X166960286Y-107428571D02*
X166796477Y-107428571D01*
X166796477Y-107428571D02*
X166632667Y-107500000D01*
X166632667Y-107500000D02*
X166550762Y-107571429D01*
X166550762Y-107571429D02*
X166468858Y-107714286D01*
X166468858Y-107714286D02*
X166386953Y-108000000D01*
X166386953Y-108000000D02*
X166305048Y-108142857D01*
X166305048Y-108142857D02*
X166223143Y-108214286D01*
X166223143Y-108214286D02*
X166059334Y-108285714D01*
X166059334Y-108285714D02*
X165895524Y-108285714D01*
X165895524Y-108285714D02*
X165731715Y-108214286D01*
X165731715Y-108214286D02*
X165649810Y-108142857D01*
X165649810Y-108142857D02*
X165567905Y-108000000D01*
X165567905Y-108000000D02*
X165567905Y-107642857D01*
X165567905Y-107642857D02*
X165649810Y-107428571D01*
X167287905Y-106785715D02*
X166141239Y-106785715D01*
X165567905Y-106785715D02*
X165649810Y-106857143D01*
X165649810Y-106857143D02*
X165731715Y-106785715D01*
X165731715Y-106785715D02*
X165649810Y-106714286D01*
X165649810Y-106714286D02*
X165567905Y-106785715D01*
X165567905Y-106785715D02*
X165731715Y-106785715D01*
X167287905Y-106071429D02*
X165567905Y-106071429D01*
X166223143Y-106071429D02*
X166141239Y-105928572D01*
X166141239Y-105928572D02*
X166141239Y-105642857D01*
X166141239Y-105642857D02*
X166223143Y-105500000D01*
X166223143Y-105500000D02*
X166305048Y-105428572D01*
X166305048Y-105428572D02*
X166468858Y-105357143D01*
X166468858Y-105357143D02*
X166960286Y-105357143D01*
X166960286Y-105357143D02*
X167124096Y-105428572D01*
X167124096Y-105428572D02*
X167206001Y-105500000D01*
X167206001Y-105500000D02*
X167287905Y-105642857D01*
X167287905Y-105642857D02*
X167287905Y-105928572D01*
X167287905Y-105928572D02*
X167206001Y-106071429D01*
X167206001Y-104142857D02*
X167287905Y-104285714D01*
X167287905Y-104285714D02*
X167287905Y-104571429D01*
X167287905Y-104571429D02*
X167206001Y-104714286D01*
X167206001Y-104714286D02*
X167042191Y-104785714D01*
X167042191Y-104785714D02*
X166386953Y-104785714D01*
X166386953Y-104785714D02*
X166223143Y-104714286D01*
X166223143Y-104714286D02*
X166141239Y-104571429D01*
X166141239Y-104571429D02*
X166141239Y-104285714D01*
X166141239Y-104285714D02*
X166223143Y-104142857D01*
X166223143Y-104142857D02*
X166386953Y-104071429D01*
X166386953Y-104071429D02*
X166550762Y-104071429D01*
X166550762Y-104071429D02*
X166714572Y-104785714D01*
X166141239Y-103428572D02*
X167287905Y-103428572D01*
X166305048Y-103428572D02*
X166223143Y-103357143D01*
X166223143Y-103357143D02*
X166141239Y-103214286D01*
X166141239Y-103214286D02*
X166141239Y-103000000D01*
X166141239Y-103000000D02*
X166223143Y-102857143D01*
X166223143Y-102857143D02*
X166386953Y-102785715D01*
X166386953Y-102785715D02*
X167287905Y-102785715D01*
X165567905Y-102214286D02*
X165567905Y-101214286D01*
X165567905Y-101214286D02*
X167287905Y-102214286D01*
X167287905Y-102214286D02*
X167287905Y-101214286D01*
X166141239Y-100785715D02*
X167287905Y-100500001D01*
X167287905Y-100500001D02*
X166468858Y-100214286D01*
X166468858Y-100214286D02*
X167287905Y-99928572D01*
X167287905Y-99928572D02*
X166141239Y-99642858D01*
X167287905Y-98428572D02*
X166386953Y-98428572D01*
X166386953Y-98428572D02*
X166223143Y-98500000D01*
X166223143Y-98500000D02*
X166141239Y-98642857D01*
X166141239Y-98642857D02*
X166141239Y-98928572D01*
X166141239Y-98928572D02*
X166223143Y-99071429D01*
X167206001Y-98428572D02*
X167287905Y-98571429D01*
X167287905Y-98571429D02*
X167287905Y-98928572D01*
X167287905Y-98928572D02*
X167206001Y-99071429D01*
X167206001Y-99071429D02*
X167042191Y-99142857D01*
X167042191Y-99142857D02*
X166878381Y-99142857D01*
X166878381Y-99142857D02*
X166714572Y-99071429D01*
X166714572Y-99071429D02*
X166632667Y-98928572D01*
X166632667Y-98928572D02*
X166632667Y-98571429D01*
X166632667Y-98571429D02*
X166550762Y-98428572D01*
X166141239Y-97714286D02*
X167287905Y-97714286D01*
X166305048Y-97714286D02*
X166223143Y-97642857D01*
X166223143Y-97642857D02*
X166141239Y-97500000D01*
X166141239Y-97500000D02*
X166141239Y-97285714D01*
X166141239Y-97285714D02*
X166223143Y-97142857D01*
X166223143Y-97142857D02*
X166386953Y-97071429D01*
X166386953Y-97071429D02*
X167287905Y-97071429D01*
X166141239Y-96500000D02*
X166141239Y-95714286D01*
X166141239Y-95714286D02*
X167287905Y-96500000D01*
X167287905Y-96500000D02*
X167287905Y-95714286D01*
X167287905Y-95142857D02*
X166141239Y-95142857D01*
X165567905Y-95142857D02*
X165649810Y-95214285D01*
X165649810Y-95214285D02*
X165731715Y-95142857D01*
X165731715Y-95142857D02*
X165649810Y-95071428D01*
X165649810Y-95071428D02*
X165567905Y-95142857D01*
X165567905Y-95142857D02*
X165731715Y-95142857D01*
X166141239Y-93785714D02*
X167533620Y-93785714D01*
X167533620Y-93785714D02*
X167697429Y-93857142D01*
X167697429Y-93857142D02*
X167779334Y-93928571D01*
X167779334Y-93928571D02*
X167861239Y-94071428D01*
X167861239Y-94071428D02*
X167861239Y-94285714D01*
X167861239Y-94285714D02*
X167779334Y-94428571D01*
X167206001Y-93785714D02*
X167287905Y-93928571D01*
X167287905Y-93928571D02*
X167287905Y-94214285D01*
X167287905Y-94214285D02*
X167206001Y-94357142D01*
X167206001Y-94357142D02*
X167124096Y-94428571D01*
X167124096Y-94428571D02*
X166960286Y-94499999D01*
X166960286Y-94499999D02*
X166468858Y-94499999D01*
X166468858Y-94499999D02*
X166305048Y-94428571D01*
X166305048Y-94428571D02*
X166223143Y-94357142D01*
X166223143Y-94357142D02*
X166141239Y-94214285D01*
X166141239Y-94214285D02*
X166141239Y-93928571D01*
X166141239Y-93928571D02*
X166223143Y-93785714D01*
X157333333Y-104604819D02*
X157000000Y-104128628D01*
X156761905Y-104604819D02*
X156761905Y-103604819D01*
X156761905Y-103604819D02*
X157142857Y-103604819D01*
X157142857Y-103604819D02*
X157238095Y-103652438D01*
X157238095Y-103652438D02*
X157285714Y-103700057D01*
X157285714Y-103700057D02*
X157333333Y-103795295D01*
X157333333Y-103795295D02*
X157333333Y-103938152D01*
X157333333Y-103938152D02*
X157285714Y-104033390D01*
X157285714Y-104033390D02*
X157238095Y-104081009D01*
X157238095Y-104081009D02*
X157142857Y-104128628D01*
X157142857Y-104128628D02*
X156761905Y-104128628D01*
X158238095Y-103604819D02*
X157761905Y-103604819D01*
X157761905Y-103604819D02*
X157714286Y-104081009D01*
X157714286Y-104081009D02*
X157761905Y-104033390D01*
X157761905Y-104033390D02*
X157857143Y-103985771D01*
X157857143Y-103985771D02*
X158095238Y-103985771D01*
X158095238Y-103985771D02*
X158190476Y-104033390D01*
X158190476Y-104033390D02*
X158238095Y-104081009D01*
X158238095Y-104081009D02*
X158285714Y-104176247D01*
X158285714Y-104176247D02*
X158285714Y-104414342D01*
X158285714Y-104414342D02*
X158238095Y-104509580D01*
X158238095Y-104509580D02*
X158190476Y-104557200D01*
X158190476Y-104557200D02*
X158095238Y-104604819D01*
X158095238Y-104604819D02*
X157857143Y-104604819D01*
X157857143Y-104604819D02*
X157761905Y-104557200D01*
X157761905Y-104557200D02*
X157714286Y-104509580D01*
X150454819Y-78666666D02*
X149978628Y-78999999D01*
X150454819Y-79238094D02*
X149454819Y-79238094D01*
X149454819Y-79238094D02*
X149454819Y-78857142D01*
X149454819Y-78857142D02*
X149502438Y-78761904D01*
X149502438Y-78761904D02*
X149550057Y-78714285D01*
X149550057Y-78714285D02*
X149645295Y-78666666D01*
X149645295Y-78666666D02*
X149788152Y-78666666D01*
X149788152Y-78666666D02*
X149883390Y-78714285D01*
X149883390Y-78714285D02*
X149931009Y-78761904D01*
X149931009Y-78761904D02*
X149978628Y-78857142D01*
X149978628Y-78857142D02*
X149978628Y-79238094D01*
X149454819Y-78333332D02*
X149454819Y-77666666D01*
X149454819Y-77666666D02*
X150454819Y-78095237D01*
X158420833Y-73804819D02*
X158087500Y-73328628D01*
X157849405Y-73804819D02*
X157849405Y-72804819D01*
X157849405Y-72804819D02*
X158230357Y-72804819D01*
X158230357Y-72804819D02*
X158325595Y-72852438D01*
X158325595Y-72852438D02*
X158373214Y-72900057D01*
X158373214Y-72900057D02*
X158420833Y-72995295D01*
X158420833Y-72995295D02*
X158420833Y-73138152D01*
X158420833Y-73138152D02*
X158373214Y-73233390D01*
X158373214Y-73233390D02*
X158325595Y-73281009D01*
X158325595Y-73281009D02*
X158230357Y-73328628D01*
X158230357Y-73328628D02*
X157849405Y-73328628D01*
X159277976Y-73138152D02*
X159277976Y-73804819D01*
X159039881Y-72757200D02*
X158801786Y-73471485D01*
X158801786Y-73471485D02*
X159420833Y-73471485D01*
X155904761Y-86050057D02*
X155809523Y-86002438D01*
X155809523Y-86002438D02*
X155714285Y-85907200D01*
X155714285Y-85907200D02*
X155571428Y-85764342D01*
X155571428Y-85764342D02*
X155476190Y-85716723D01*
X155476190Y-85716723D02*
X155380952Y-85716723D01*
X155428571Y-85954819D02*
X155333333Y-85907200D01*
X155333333Y-85907200D02*
X155238095Y-85811961D01*
X155238095Y-85811961D02*
X155190476Y-85621485D01*
X155190476Y-85621485D02*
X155190476Y-85288152D01*
X155190476Y-85288152D02*
X155238095Y-85097676D01*
X155238095Y-85097676D02*
X155333333Y-85002438D01*
X155333333Y-85002438D02*
X155428571Y-84954819D01*
X155428571Y-84954819D02*
X155619047Y-84954819D01*
X155619047Y-84954819D02*
X155714285Y-85002438D01*
X155714285Y-85002438D02*
X155809523Y-85097676D01*
X155809523Y-85097676D02*
X155857142Y-85288152D01*
X155857142Y-85288152D02*
X155857142Y-85621485D01*
X155857142Y-85621485D02*
X155809523Y-85811961D01*
X155809523Y-85811961D02*
X155714285Y-85907200D01*
X155714285Y-85907200D02*
X155619047Y-85954819D01*
X155619047Y-85954819D02*
X155428571Y-85954819D01*
X156238095Y-85050057D02*
X156285714Y-85002438D01*
X156285714Y-85002438D02*
X156380952Y-84954819D01*
X156380952Y-84954819D02*
X156619047Y-84954819D01*
X156619047Y-84954819D02*
X156714285Y-85002438D01*
X156714285Y-85002438D02*
X156761904Y-85050057D01*
X156761904Y-85050057D02*
X156809523Y-85145295D01*
X156809523Y-85145295D02*
X156809523Y-85240533D01*
X156809523Y-85240533D02*
X156761904Y-85383390D01*
X156761904Y-85383390D02*
X156190476Y-85954819D01*
X156190476Y-85954819D02*
X156809523Y-85954819D01*
D11*
%TO.C,R1*%
X163765000Y-93639564D02*
X163765000Y-93185436D01*
X165235000Y-93639564D02*
X165235000Y-93185436D01*
%TO.C,Q3*%
X163000000Y-74440000D02*
X162350000Y-74440000D01*
X163000000Y-74440000D02*
X163650000Y-74440000D01*
X163000000Y-77560000D02*
X162350000Y-77560000D01*
X163000000Y-77560000D02*
X163650000Y-77560000D01*
X161837500Y-74490000D02*
X161597500Y-74160000D01*
X162077500Y-74160000D01*
X161837500Y-74490000D01*
G36*
X161837500Y-74490000D02*
G01*
X161597500Y-74160000D01*
X162077500Y-74160000D01*
X161837500Y-74490000D01*
G37*
%TO.C,R6*%
X152860436Y-76265000D02*
X153314564Y-76265000D01*
X152860436Y-77735000D02*
X153314564Y-77735000D01*
%TO.C,J3*%
X144460000Y-72380000D02*
X144460000Y-71000000D01*
X145840000Y-72380000D02*
X144460000Y-72380000D01*
X147110000Y-69620000D02*
X157380000Y-69620000D01*
X147110000Y-72380000D02*
X147110000Y-69620000D01*
X147110000Y-72380000D02*
X157380000Y-72380000D01*
X157380000Y-72380000D02*
X157380000Y-69620000D01*
%TO.C,U3*%
X154940000Y-96500000D02*
X154940000Y-94550000D01*
X154940000Y-96500000D02*
X154940000Y-98450000D01*
X160060000Y-96500000D02*
X160060000Y-94550000D01*
X160060000Y-96500000D02*
X160060000Y-98450000D01*
X160295000Y-94040000D02*
X159965000Y-93800000D01*
X160295000Y-93560000D01*
X160295000Y-94040000D01*
G36*
X160295000Y-94040000D02*
G01*
X159965000Y-93800000D01*
X160295000Y-93560000D01*
X160295000Y-94040000D01*
G37*
%TO.C,R3*%
X158860436Y-80265000D02*
X159314564Y-80265000D01*
X158860436Y-81735000D02*
X159314564Y-81735000D01*
%TO.C,Q1*%
X160937500Y-82490000D02*
X160287500Y-82490000D01*
X160937500Y-82490000D02*
X161587500Y-82490000D01*
X160937500Y-85610000D02*
X160287500Y-85610000D01*
X160937500Y-85610000D02*
X161587500Y-85610000D01*
X159775000Y-82540000D02*
X159535000Y-82210000D01*
X160015000Y-82210000D01*
X159775000Y-82540000D01*
G36*
X159775000Y-82540000D02*
G01*
X159535000Y-82210000D01*
X160015000Y-82210000D01*
X159775000Y-82540000D01*
G37*
%TO.C,J2*%
X152580000Y-105620000D02*
X152580000Y-108380000D01*
X160310000Y-105620000D02*
X152580000Y-105620000D01*
X160310000Y-105620000D02*
X160310000Y-108380000D01*
X160310000Y-108380000D02*
X152580000Y-108380000D01*
X161580000Y-105620000D02*
X162960000Y-105620000D01*
X162960000Y-105620000D02*
X162960000Y-107000000D01*
%TO.C,C1*%
X156813748Y-90090000D02*
X158236252Y-90090000D01*
X156813748Y-91910000D02*
X158236252Y-91910000D01*
%TO.C,J1*%
X164080000Y-72380000D02*
X164080000Y-71000000D01*
X165460000Y-72380000D02*
X164080000Y-72380000D01*
X166730000Y-69620000D02*
X169380000Y-69620000D01*
X166730000Y-72380000D02*
X166730000Y-69620000D01*
X166730000Y-72380000D02*
X169380000Y-72380000D01*
X169380000Y-72380000D02*
X169380000Y-69620000D01*
%TO.C,R2*%
X153814564Y-80265000D02*
X153360436Y-80265000D01*
X153814564Y-81735000D02*
X153360436Y-81735000D01*
D12*
%TO.C,U1*%
X143840000Y-69000000D02*
X170160000Y-69000000D01*
X143840000Y-109000000D02*
X143840000Y-69000000D01*
X170160000Y-69000000D02*
X170160000Y-109000000D01*
X170160000Y-109000000D02*
X143840000Y-109000000D01*
D11*
%TO.C,R5*%
X157727064Y-101765000D02*
X157272936Y-101765000D01*
X157727064Y-103235000D02*
X157272936Y-103235000D01*
%TO.C,R7*%
X149265000Y-76139564D02*
X149265000Y-75685436D01*
X150735000Y-76139564D02*
X150735000Y-75685436D01*
%TO.C,R4*%
X158360436Y-74265000D02*
X158814564Y-74265000D01*
X158360436Y-75735000D02*
X158814564Y-75735000D01*
%TO.C,Q2*%
X154062500Y-82540000D02*
X153412500Y-82540000D01*
X154062500Y-82540000D02*
X154712500Y-82540000D01*
X154062500Y-85660000D02*
X153412500Y-85660000D01*
X154062500Y-85660000D02*
X154712500Y-85660000D01*
X152900000Y-82590000D02*
X152660000Y-82260000D01*
X153140000Y-82260000D01*
X152900000Y-82590000D01*
G36*
X152900000Y-82590000D02*
G01*
X152660000Y-82260000D01*
X153140000Y-82260000D01*
X152900000Y-82590000D01*
G37*
%TD*%
M02*
