M48
; DRILL file {KiCad 9.0.3-9.0.3-0~ubuntu24.04.1} date 2025-09-07T11:30:17-0300
; FORMAT={-:-/ absolute / metric / decimal}
; #@! TF.CreationDate,2025-09-07T11:30:17-03:00
; #@! TF.GenerationSoftware,Kicad,Pcbnew,9.0.3-9.0.3-0~ubuntu24.04.1
; #@! TF.FileFunction,Plated,1,2,PTH
FMAT,2
METRIC
; #@! TA.AperFunction,Plated,PTH,ViaDrill
T1C0.300
; #@! TA.AperFunction,Plated,PTH,ComponentDrill
T2C1.000
%
G90
G05
T1
X152.0Y-74.5
X154.0Y-91.0
X159.0Y-91.0
X163.5Y-90.5
X165.5Y-90.5
X166.0Y-80.0
X166.5Y-91.0
T2
X145.57Y-74.27
X145.57Y-76.81
X145.57Y-79.35
X145.57Y-81.89
X145.57Y-84.43
X145.57Y-86.97
X145.57Y-89.51
X145.57Y-92.05
X145.84Y-71.0
X148.38Y-71.0
X150.92Y-71.0
X153.46Y-71.0
X153.96Y-107.0
X156.0Y-71.0
X156.5Y-107.0
X159.04Y-107.0
X161.58Y-107.0
X165.46Y-71.0
X168.0Y-71.0
X168.43Y-74.27
X168.43Y-76.81
X168.43Y-79.35
X168.43Y-81.89
X168.43Y-84.43
X168.43Y-86.97
X168.43Y-89.51
X168.43Y-92.05
M30
