%TF.GenerationSoftware,KiCad,Pcbnew,9.0.3-9.0.3-0~ubuntu24.04.1*%
%TF.CreationDate,2025-09-07T11:30:27-03:00*%
%TF.ProjectId,SvoCamBoardBottom,53766f43-616d-4426-9f61-7264426f7474,rev?*%
%TF.SameCoordinates,Original*%
%TF.FileFunction,Soldermask,Top*%
%TF.FilePolarity,Negative*%
%FSLAX46Y46*%
G04 Gerber Fmt 4.6, Leading zero omitted, Abs format (unit mm)*
G04 Created by KiCad (PCBNEW 9.0.3-9.0.3-0~ubuntu24.04.1) date 2025-09-07 11:30:27*
%MOMM*%
%LPD*%
G01*
G04 APERTURE LIST*
G04 Aperture macros list*
%AMRoundRect*
0 Rectangle with rounded corners*
0 $1 Rounding radius*
0 $2 $3 $4 $5 $6 $7 $8 $9 X,Y pos of 4 corners*
0 Add a 4 corners polygon primitive as box body*
4,1,4,$2,$3,$4,$5,$6,$7,$8,$9,$2,$3,0*
0 Add four circle primitives for the rounded corners*
1,1,$1+$1,$2,$3*
1,1,$1+$1,$4,$5*
1,1,$1+$1,$6,$7*
1,1,$1+$1,$8,$9*
0 Add four rect primitives between the rounded corners*
20,1,$1+$1,$2,$3,$4,$5,0*
20,1,$1+$1,$4,$5,$6,$7,0*
20,1,$1+$1,$6,$7,$8,$9,0*
20,1,$1+$1,$8,$9,$2,$3,0*%
G04 Aperture macros list end*
%ADD10RoundRect,0.250000X0.450000X-0.262500X0.450000X0.262500X-0.450000X0.262500X-0.450000X-0.262500X0*%
%ADD11RoundRect,0.150000X-0.587500X-0.150000X0.587500X-0.150000X0.587500X0.150000X-0.587500X0.150000X0*%
%ADD12RoundRect,0.250000X-0.262500X-0.450000X0.262500X-0.450000X0.262500X0.450000X-0.262500X0.450000X0*%
%ADD13R,1.700000X1.700000*%
%ADD14C,1.700000*%
%ADD15RoundRect,0.150000X-0.150000X0.825000X-0.150000X-0.825000X0.150000X-0.825000X0.150000X0.825000X0*%
%ADD16RoundRect,0.250000X-0.325000X-0.650000X0.325000X-0.650000X0.325000X0.650000X-0.325000X0.650000X0*%
%ADD17RoundRect,0.250000X0.262500X0.450000X-0.262500X0.450000X-0.262500X-0.450000X0.262500X-0.450000X0*%
%ADD18O,3.048800X1.626400*%
G04 APERTURE END LIST*
D10*
%TO.C,R1*%
X164500000Y-94325000D03*
X164500000Y-92500000D03*
%TD*%
D11*
%TO.C,Q3*%
X162062500Y-75050000D03*
X162062500Y-76950000D03*
X163937500Y-76000000D03*
%TD*%
D12*
%TO.C,R6*%
X152175000Y-77000000D03*
X154000000Y-77000000D03*
%TD*%
D13*
%TO.C,J3*%
X145840000Y-71000000D03*
D14*
X148380000Y-71000000D03*
X150920000Y-71000000D03*
X153460000Y-71000000D03*
X156000000Y-71000000D03*
%TD*%
D15*
%TO.C,U3*%
X159405000Y-94025000D03*
X158135000Y-94025000D03*
X156865000Y-94025000D03*
X155595000Y-94025000D03*
X155595000Y-98975000D03*
X156865000Y-98975000D03*
X158135000Y-98975000D03*
X159405000Y-98975000D03*
%TD*%
D12*
%TO.C,R3*%
X158175000Y-81000000D03*
X160000000Y-81000000D03*
%TD*%
D11*
%TO.C,Q1*%
X160000000Y-83100000D03*
X160000000Y-85000000D03*
X161875000Y-84050000D03*
%TD*%
D13*
%TO.C,J2*%
X161580000Y-107000000D03*
D14*
X159040000Y-107000000D03*
X156500000Y-107000000D03*
X153960000Y-107000000D03*
%TD*%
D16*
%TO.C,C1*%
X156050000Y-91000000D03*
X159000000Y-91000000D03*
%TD*%
D13*
%TO.C,J1*%
X165460000Y-71000000D03*
D14*
X168000000Y-71000000D03*
%TD*%
D17*
%TO.C,R2*%
X154500000Y-81000000D03*
X152675000Y-81000000D03*
%TD*%
D18*
%TO.C,U1*%
X145570000Y-74270000D03*
X145570000Y-76810000D03*
X145570000Y-79350000D03*
X145570000Y-81890000D03*
X145570000Y-84430000D03*
X145570000Y-86970000D03*
X145570000Y-89510000D03*
X145570000Y-92050000D03*
X168430000Y-92050000D03*
X168430000Y-89510000D03*
X168430000Y-86970000D03*
X168430000Y-84430000D03*
X168430000Y-81890000D03*
X168430000Y-79350000D03*
X168430000Y-76810000D03*
X168430000Y-74270000D03*
%TD*%
D17*
%TO.C,R5*%
X158412500Y-102500000D03*
X156587500Y-102500000D03*
%TD*%
D10*
%TO.C,R7*%
X150000000Y-76825000D03*
X150000000Y-75000000D03*
%TD*%
D12*
%TO.C,R4*%
X157675000Y-75000000D03*
X159500000Y-75000000D03*
%TD*%
D11*
%TO.C,Q2*%
X153125000Y-83150000D03*
X153125000Y-85050000D03*
X155000000Y-84100000D03*
%TD*%
M02*
