%TF.GenerationSoftware,KiCad,Pcbnew,9.0.2*%
%TF.CreationDate,2025-07-08T19:23:37-03:00*%
%TF.ProjectId,ProlinUp,50726f6c-696e-4557-902e-6b696361645f,rev?*%
%TF.SameCoordinates,Original*%
%TF.FileFunction,Copper,L2,Bot*%
%TF.FilePolarity,Positive*%
%FSLAX46Y46*%
G04 Gerber Fmt 4.6, Leading zero omitted, Abs format (unit mm)*
G04 Created by KiCad (PCBNEW 9.0.2) date 2025-07-08 19:23:37*
%MOMM*%
%LPD*%
G01*
G04 APERTURE LIST*
%TA.AperFunction,ComponentPad*%
%ADD10R,1.700000X1.700000*%
%TD*%
%TA.AperFunction,ComponentPad*%
%ADD11C,1.700000*%
%TD*%
%TA.AperFunction,ComponentPad*%
%ADD12C,1.524000*%
%TD*%
%TA.AperFunction,ViaPad*%
%ADD13C,0.600000*%
%TD*%
%TA.AperFunction,Conductor*%
%ADD14C,1.000000*%
%TD*%
%TA.AperFunction,Conductor*%
%ADD15C,0.500000*%
%TD*%
%TA.AperFunction,Conductor*%
%ADD16C,0.400000*%
%TD*%
G04 APERTURE END LIST*
D10*
%TO.P,J2,1,Pin_1*%
%TO.N,+5V*%
X141922500Y-76156250D03*
D11*
%TO.P,J2,2,Pin_2*%
X144462500Y-76156250D03*
%TO.P,J2,3,Pin_3*%
%TO.N,GND*%
X147002500Y-76156250D03*
%TO.P,J2,4,Pin_4*%
X149542500Y-76156250D03*
%TO.P,J2,5,Pin_5*%
%TO.N,TOUCH_BUTTON*%
X152082500Y-76156250D03*
%TD*%
D10*
%TO.P,J1,1,Pin_1*%
%TO.N,+3.3V*%
X152122500Y-132656250D03*
D11*
%TO.P,J1,2,Pin_2*%
%TO.N,PA0_X_ADXL*%
X149582500Y-132656250D03*
%TO.P,J1,3,Pin_3*%
%TO.N,PA1_Z_ADXL*%
X147042500Y-132656250D03*
%TO.P,J1,4,Pin_4*%
%TO.N,PA2_Y_ADXL*%
X144502500Y-132656250D03*
%TO.P,J1,5,Pin_5*%
%TO.N,GND*%
X141962500Y-132656250D03*
%TD*%
D10*
%TO.P,J4,1,Pin_1*%
%TO.N,Net-(J4-Pin_1)*%
X145187500Y-128656250D03*
D11*
%TO.P,J4,2,Pin_2*%
%TO.N,+5V*%
X147727500Y-128656250D03*
%TD*%
D12*
%TO.P,U1,3V3,3.3V*%
%TO.N,+3.3V*%
X139437500Y-128461250D03*
X143247500Y-124651250D03*
X154677500Y-85281250D03*
%TO.P,U1,5V,5V*%
%TO.N,+5V*%
X139437500Y-123381250D03*
%TO.P,U1,G,GND*%
%TO.N,GND*%
X139437500Y-125921250D03*
X150867500Y-124651250D03*
X154677500Y-80201250D03*
X154677500Y-82741250D03*
%TO.P,U1,NRST,RESET*%
%TO.N,Net-(Q1-C)*%
X154677500Y-87821250D03*
%TO.P,U1,PA0,PA0*%
%TO.N,PA0_X_ADXL*%
X154677500Y-118301250D03*
%TO.P,U1,PA1,PA1*%
%TO.N,PA1_Z_ADXL*%
X154677500Y-115761250D03*
%TO.P,U1,PA2,PA2*%
%TO.N,PA2_Y_ADXL*%
X154677500Y-113221250D03*
%TO.P,U1,PA3,PA3*%
%TO.N,unconnected-(U1-PadPA3)*%
X154677500Y-110681250D03*
%TO.P,U1,PA4,PA4*%
%TO.N,unconnected-(U1-PadPA4)*%
X154677500Y-108141250D03*
%TO.P,U1,PA5,PA5*%
%TO.N,unconnected-(U1-PadPA5)*%
X154677500Y-105601250D03*
%TO.P,U1,PA6,PA6*%
%TO.N,PA6_PWM_OUTPUT*%
X154677500Y-103061250D03*
%TO.P,U1,PA7,PA7*%
%TO.N,unconnected-(U1-PadPA7)*%
X154677500Y-100521250D03*
%TO.P,U1,PA8,PA8*%
%TO.N,unconnected-(U1-PadPA8)*%
X139437500Y-90361250D03*
%TO.P,U1,PA9,PA9*%
%TO.N,unconnected-(U1-PadPA9)*%
X139437500Y-92901250D03*
%TO.P,U1,PA10,PA10*%
%TO.N,unconnected-(U1-PadPA10)*%
X139437500Y-95441250D03*
%TO.P,U1,PA11,PA11*%
%TO.N,unconnected-(U1-PadPA11)*%
X139437500Y-97981250D03*
%TO.P,U1,PA12,PA12*%
%TO.N,unconnected-(U1-PadPA12)*%
X139437500Y-100521250D03*
%TO.P,U1,PA15,PA15*%
%TO.N,unconnected-(U1-PadPA15)*%
X139437500Y-103061250D03*
%TO.P,U1,PB0,PB0*%
%TO.N,Net-(R2-Pad1)*%
X154677500Y-97981250D03*
%TO.P,U1,PB1,PB1*%
%TO.N,unconnected-(U1-PadPB1)*%
X154677500Y-95441250D03*
%TO.P,U1,PB3,PB3*%
%TO.N,unconnected-(U1-PadPB3)*%
X139437500Y-105601250D03*
%TO.P,U1,PB4,PB4*%
%TO.N,unconnected-(U1-PadPB4)*%
X139437500Y-108141250D03*
%TO.P,U1,PB5,PB5*%
%TO.N,unconnected-(U1-PadPB5)*%
X139437500Y-110681250D03*
%TO.P,U1,PB6,PB6*%
%TO.N,unconnected-(U1-PadPB6)*%
X139437500Y-113221250D03*
%TO.P,U1,PB7,PB7*%
%TO.N,SIGNAL_TOUCH*%
X139437500Y-115761250D03*
%TO.P,U1,PB8,PB8*%
%TO.N,unconnected-(U1-PadPB8)*%
X139437500Y-118301250D03*
%TO.P,U1,PB9,PB9*%
%TO.N,unconnected-(U1-PadPB9)*%
X139437500Y-120841250D03*
%TO.P,U1,PB10,PB10*%
%TO.N,unconnected-(U1-PadPB10)*%
X154677500Y-92901250D03*
%TO.P,U1,PB11,PB11*%
%TO.N,unconnected-(U1-PadPB11)*%
X154677500Y-90361250D03*
%TO.P,U1,PB12,PB12*%
%TO.N,unconnected-(U1-PadPB12)*%
X139437500Y-80201250D03*
%TO.P,U1,PB13,PB13*%
%TO.N,unconnected-(U1-PadPB13)*%
X139437500Y-82741250D03*
%TO.P,U1,PB14,PB14*%
%TO.N,unconnected-(U1-PadPB14)*%
X139437500Y-85281250D03*
%TO.P,U1,PB15,PB15*%
%TO.N,unconnected-(U1-PadPB15)*%
X139437500Y-87821250D03*
%TO.P,U1,PC13,PC13*%
%TO.N,unconnected-(U1-PadPC13)*%
X154677500Y-125921250D03*
%TO.P,U1,PC14,PC14*%
%TO.N,unconnected-(U1-PadPC14)*%
X154677500Y-123381250D03*
%TO.P,U1,PC15,PC15*%
%TO.N,unconnected-(U1-PadPC15)*%
X154677500Y-120841250D03*
%TO.P,U1,SWCLK*%
%TO.N,N/C*%
X148327500Y-124651250D03*
%TO.P,U1,SWO*%
X145787500Y-124651250D03*
%TO.P,U1,VBAT,Vbat*%
%TO.N,unconnected-(U1-Vbat-PadVBAT)*%
X154677500Y-128461250D03*
%TD*%
D13*
%TO.N,TOUCH_BUTTON*%
X145000000Y-90500000D03*
X146000000Y-93000000D03*
X146000000Y-93000000D03*
X147000000Y-96000000D03*
%TD*%
D14*
%TO.N,+5V*%
X144462500Y-76156250D02*
X142500000Y-78118750D01*
X142500000Y-78118750D02*
X142500000Y-120318750D01*
X142500000Y-120318750D02*
X139437500Y-123381250D01*
D15*
%TO.N,TOUCH_BUTTON*%
X145000000Y-90500000D02*
X145000000Y-88500000D01*
X151000000Y-77238750D02*
X152082500Y-76156250D01*
X145000000Y-88500000D02*
X151000000Y-82500000D01*
X151000000Y-82500000D02*
X151000000Y-77238750D01*
X146000000Y-95000000D02*
X146000000Y-93000000D01*
X147000000Y-96000000D02*
X146000000Y-95000000D01*
D14*
%TO.N,+3.3V*%
X143247500Y-124651250D02*
X144422500Y-123476250D01*
X144422500Y-123476250D02*
X144422500Y-92577500D01*
X144422500Y-92577500D02*
X151718750Y-85281250D01*
X151718750Y-85281250D02*
X154677500Y-85281250D01*
%TO.N,+5V*%
X147727500Y-128391250D02*
X147727500Y-128656250D01*
X139437500Y-123381250D02*
X143161500Y-127105250D01*
X146441500Y-127105250D02*
X147727500Y-128391250D01*
X143161500Y-127105250D02*
X146441500Y-127105250D01*
%TO.N,GND*%
X139437500Y-125921250D02*
X141962500Y-128446250D01*
X141962500Y-128446250D02*
X141962500Y-132656250D01*
D16*
%TO.N,PA2_Y_ADXL*%
X145753500Y-131405250D02*
X147443558Y-131405250D01*
X152312500Y-115586250D02*
X154677500Y-113221250D01*
X152312500Y-126536308D02*
X152312500Y-115586250D01*
X144502500Y-132656250D02*
X145753500Y-131405250D01*
X147443558Y-131405250D02*
X152312500Y-126536308D01*
%TO.N,PA0_X_ADXL*%
X149582500Y-132656250D02*
X153514500Y-128724250D01*
X153514500Y-128724250D02*
X153514500Y-119464250D01*
X153514500Y-119464250D02*
X154677500Y-118301250D01*
%TO.N,PA1_Z_ADXL*%
X147042500Y-132656250D02*
X152913500Y-126785250D01*
X152913500Y-126785250D02*
X152913500Y-117525250D01*
X152913500Y-117525250D02*
X154677500Y-115761250D01*
%TD*%
M02*
