%TF.GenerationSoftware,KiCad,Pcbnew,9.0.2*%
%TF.CreationDate,2025-07-08T19:23:37-03:00*%
%TF.ProjectId,ProlinUp,50726f6c-696e-4557-902e-6b696361645f,rev?*%
%TF.SameCoordinates,Original*%
%TF.FileFunction,Copper,L1,Top*%
%TF.FilePolarity,Positive*%
%FSLAX46Y46*%
G04 Gerber Fmt 4.6, Leading zero omitted, Abs format (unit mm)*
G04 Created by KiCad (PCBNEW 9.0.2) date 2025-07-08 19:23:37*
%MOMM*%
%LPD*%
G01*
G04 APERTURE LIST*
G04 Aperture macros list*
%AMRoundRect*
0 Rectangle with rounded corners*
0 $1 Rounding radius*
0 $2 $3 $4 $5 $6 $7 $8 $9 X,Y pos of 4 corners*
0 Add a 4 corners polygon primitive as box body*
4,1,4,$2,$3,$4,$5,$6,$7,$8,$9,$2,$3,0*
0 Add four circle primitives for the rounded corners*
1,1,$1+$1,$2,$3*
1,1,$1+$1,$4,$5*
1,1,$1+$1,$6,$7*
1,1,$1+$1,$8,$9*
0 Add four rect primitives between the rounded corners*
20,1,$1+$1,$2,$3,$4,$5,0*
20,1,$1+$1,$4,$5,$6,$7,0*
20,1,$1+$1,$6,$7,$8,$9,0*
20,1,$1+$1,$8,$9,$2,$3,0*%
G04 Aperture macros list end*
%TA.AperFunction,SMDPad,CuDef*%
%ADD10R,1.143000X0.609600*%
%TD*%
%TA.AperFunction,SMDPad,CuDef*%
%ADD11RoundRect,0.250000X-0.650000X0.325000X-0.650000X-0.325000X0.650000X-0.325000X0.650000X0.325000X0*%
%TD*%
%TA.AperFunction,ComponentPad*%
%ADD12R,1.700000X1.700000*%
%TD*%
%TA.AperFunction,ComponentPad*%
%ADD13C,1.700000*%
%TD*%
%TA.AperFunction,SMDPad,CuDef*%
%ADD14RoundRect,0.250000X0.312500X0.625000X-0.312500X0.625000X-0.312500X-0.625000X0.312500X-0.625000X0*%
%TD*%
%TA.AperFunction,SMDPad,CuDef*%
%ADD15RoundRect,0.250000X-0.625000X0.312500X-0.625000X-0.312500X0.625000X-0.312500X0.625000X0.312500X0*%
%TD*%
%TA.AperFunction,SMDPad,CuDef*%
%ADD16RoundRect,0.250000X0.625000X-0.312500X0.625000X0.312500X-0.625000X0.312500X-0.625000X-0.312500X0*%
%TD*%
%TA.AperFunction,SMDPad,CuDef*%
%ADD17RoundRect,0.112500X-0.112500X-0.237500X0.112500X-0.237500X0.112500X0.237500X-0.112500X0.237500X0*%
%TD*%
%TA.AperFunction,SMDPad,CuDef*%
%ADD18RoundRect,0.112500X0.112500X0.237500X-0.112500X0.237500X-0.112500X-0.237500X0.112500X-0.237500X0*%
%TD*%
%TA.AperFunction,ComponentPad*%
%ADD19C,1.524000*%
%TD*%
%TA.AperFunction,SMDPad,CuDef*%
%ADD20RoundRect,0.250000X-0.325000X-0.650000X0.325000X-0.650000X0.325000X0.650000X-0.325000X0.650000X0*%
%TD*%
%TA.AperFunction,ViaPad*%
%ADD21C,0.600000*%
%TD*%
%TA.AperFunction,Conductor*%
%ADD22C,0.500000*%
%TD*%
%TA.AperFunction,Conductor*%
%ADD23C,1.000000*%
%TD*%
G04 APERTURE END LIST*
D10*
%TO.P,U2,1,Q*%
%TO.N,SIGNAL_TOUCH*%
X147808000Y-99400000D03*
%TO.P,U2,2,VSS*%
%TO.N,GND*%
X147808000Y-98450000D03*
%TO.P,U2,3,I*%
%TO.N,TOUCH_BUTTON*%
X147808000Y-97500000D03*
%TO.P,U2,4,AHLB*%
%TO.N,GND*%
X145000000Y-97500000D03*
%TO.P,U2,5,VDD*%
%TO.N,+3.3V*%
X145000000Y-98450000D03*
%TO.P,U2,6,TOG*%
%TO.N,GND*%
X145000000Y-99400000D03*
%TD*%
D11*
%TO.P,C2,1*%
%TO.N,TOUCH_BUTTON*%
X150500000Y-99550000D03*
%TO.P,C2,2*%
%TO.N,GND*%
X150500000Y-102500000D03*
%TD*%
D12*
%TO.P,J2,1,Pin_1*%
%TO.N,+5V*%
X141922500Y-76156250D03*
D13*
%TO.P,J2,2,Pin_2*%
X144462500Y-76156250D03*
%TO.P,J2,3,Pin_3*%
%TO.N,GND*%
X147002500Y-76156250D03*
%TO.P,J2,4,Pin_4*%
X149542500Y-76156250D03*
%TO.P,J2,5,Pin_5*%
%TO.N,TOUCH_BUTTON*%
X152082500Y-76156250D03*
%TD*%
D14*
%TO.P,R3,1*%
%TO.N,PA6_PWM_OUTPUT*%
X146962500Y-107156250D03*
%TO.P,R3,2*%
%TO.N,Net-(Q2-B)*%
X144037500Y-107156250D03*
%TD*%
D15*
%TO.P,R1,1*%
%TO.N,Net-(Q1-B)*%
X148462500Y-91193750D03*
%TO.P,R1,2*%
%TO.N,GND*%
X148462500Y-94118750D03*
%TD*%
D14*
%TO.P,R4,1*%
%TO.N,Net-(Q2-B)*%
X146925000Y-112156250D03*
%TO.P,R4,2*%
%TO.N,GND*%
X144000000Y-112156250D03*
%TD*%
D16*
%TO.P,R2,1*%
%TO.N,Net-(R2-Pad1)*%
X151462500Y-94118750D03*
%TO.P,R2,2*%
%TO.N,Net-(Q1-B)*%
X151462500Y-91193750D03*
%TD*%
D17*
%TO.P,Q1,1,B*%
%TO.N,Net-(Q1-B)*%
X150162500Y-88656250D03*
%TO.P,Q1,2,E*%
%TO.N,GND*%
X151462500Y-88656250D03*
%TO.P,Q1,3,C*%
%TO.N,Net-(Q1-C)*%
X150812500Y-86656250D03*
%TD*%
D12*
%TO.P,J1,1,Pin_1*%
%TO.N,+3.3V*%
X152122500Y-132656250D03*
D13*
%TO.P,J1,2,Pin_2*%
%TO.N,PA0_X_ADXL*%
X149582500Y-132656250D03*
%TO.P,J1,3,Pin_3*%
%TO.N,PA1_Z_ADXL*%
X147042500Y-132656250D03*
%TO.P,J1,4,Pin_4*%
%TO.N,PA2_Y_ADXL*%
X144502500Y-132656250D03*
%TO.P,J1,5,Pin_5*%
%TO.N,GND*%
X141962500Y-132656250D03*
%TD*%
D18*
%TO.P,Q2,1,B*%
%TO.N,Net-(Q2-B)*%
X146112500Y-116656250D03*
%TO.P,Q2,2,E*%
%TO.N,GND*%
X144812500Y-116656250D03*
%TO.P,Q2,3,C*%
%TO.N,Net-(J4-Pin_1)*%
X145462500Y-118656250D03*
%TD*%
D12*
%TO.P,J4,1,Pin_1*%
%TO.N,Net-(J4-Pin_1)*%
X145187500Y-128656250D03*
D13*
%TO.P,J4,2,Pin_2*%
%TO.N,+5V*%
X147727500Y-128656250D03*
%TD*%
D19*
%TO.P,U1,3V3,3.3V*%
%TO.N,+3.3V*%
X139437500Y-128461250D03*
X143247500Y-124651250D03*
X154677500Y-85281250D03*
%TO.P,U1,5V,5V*%
%TO.N,+5V*%
X139437500Y-123381250D03*
%TO.P,U1,G,GND*%
%TO.N,GND*%
X139437500Y-125921250D03*
X150867500Y-124651250D03*
X154677500Y-80201250D03*
X154677500Y-82741250D03*
%TO.P,U1,NRST,RESET*%
%TO.N,Net-(Q1-C)*%
X154677500Y-87821250D03*
%TO.P,U1,PA0,PA0*%
%TO.N,PA0_X_ADXL*%
X154677500Y-118301250D03*
%TO.P,U1,PA1,PA1*%
%TO.N,PA1_Z_ADXL*%
X154677500Y-115761250D03*
%TO.P,U1,PA2,PA2*%
%TO.N,PA2_Y_ADXL*%
X154677500Y-113221250D03*
%TO.P,U1,PA3,PA3*%
%TO.N,unconnected-(U1-PadPA3)*%
X154677500Y-110681250D03*
%TO.P,U1,PA4,PA4*%
%TO.N,unconnected-(U1-PadPA4)*%
X154677500Y-108141250D03*
%TO.P,U1,PA5,PA5*%
%TO.N,unconnected-(U1-PadPA5)*%
X154677500Y-105601250D03*
%TO.P,U1,PA6,PA6*%
%TO.N,PA6_PWM_OUTPUT*%
X154677500Y-103061250D03*
%TO.P,U1,PA7,PA7*%
%TO.N,unconnected-(U1-PadPA7)*%
X154677500Y-100521250D03*
%TO.P,U1,PA8,PA8*%
%TO.N,unconnected-(U1-PadPA8)*%
X139437500Y-90361250D03*
%TO.P,U1,PA9,PA9*%
%TO.N,unconnected-(U1-PadPA9)*%
X139437500Y-92901250D03*
%TO.P,U1,PA10,PA10*%
%TO.N,unconnected-(U1-PadPA10)*%
X139437500Y-95441250D03*
%TO.P,U1,PA11,PA11*%
%TO.N,unconnected-(U1-PadPA11)*%
X139437500Y-97981250D03*
%TO.P,U1,PA12,PA12*%
%TO.N,unconnected-(U1-PadPA12)*%
X139437500Y-100521250D03*
%TO.P,U1,PA15,PA15*%
%TO.N,unconnected-(U1-PadPA15)*%
X139437500Y-103061250D03*
%TO.P,U1,PB0,PB0*%
%TO.N,Net-(R2-Pad1)*%
X154677500Y-97981250D03*
%TO.P,U1,PB1,PB1*%
%TO.N,unconnected-(U1-PadPB1)*%
X154677500Y-95441250D03*
%TO.P,U1,PB3,PB3*%
%TO.N,unconnected-(U1-PadPB3)*%
X139437500Y-105601250D03*
%TO.P,U1,PB4,PB4*%
%TO.N,unconnected-(U1-PadPB4)*%
X139437500Y-108141250D03*
%TO.P,U1,PB5,PB5*%
%TO.N,unconnected-(U1-PadPB5)*%
X139437500Y-110681250D03*
%TO.P,U1,PB6,PB6*%
%TO.N,unconnected-(U1-PadPB6)*%
X139437500Y-113221250D03*
%TO.P,U1,PB7,PB7*%
%TO.N,SIGNAL_TOUCH*%
X139437500Y-115761250D03*
%TO.P,U1,PB8,PB8*%
%TO.N,unconnected-(U1-PadPB8)*%
X139437500Y-118301250D03*
%TO.P,U1,PB9,PB9*%
%TO.N,unconnected-(U1-PadPB9)*%
X139437500Y-120841250D03*
%TO.P,U1,PB10,PB10*%
%TO.N,unconnected-(U1-PadPB10)*%
X154677500Y-92901250D03*
%TO.P,U1,PB11,PB11*%
%TO.N,unconnected-(U1-PadPB11)*%
X154677500Y-90361250D03*
%TO.P,U1,PB12,PB12*%
%TO.N,unconnected-(U1-PadPB12)*%
X139437500Y-80201250D03*
%TO.P,U1,PB13,PB13*%
%TO.N,unconnected-(U1-PadPB13)*%
X139437500Y-82741250D03*
%TO.P,U1,PB14,PB14*%
%TO.N,unconnected-(U1-PadPB14)*%
X139437500Y-85281250D03*
%TO.P,U1,PB15,PB15*%
%TO.N,unconnected-(U1-PadPB15)*%
X139437500Y-87821250D03*
%TO.P,U1,PC13,PC13*%
%TO.N,unconnected-(U1-PadPC13)*%
X154677500Y-125921250D03*
%TO.P,U1,PC14,PC14*%
%TO.N,unconnected-(U1-PadPC14)*%
X154677500Y-123381250D03*
%TO.P,U1,PC15,PC15*%
%TO.N,unconnected-(U1-PadPC15)*%
X154677500Y-120841250D03*
%TO.P,U1,SWCLK*%
%TO.N,N/C*%
X148327500Y-124651250D03*
%TO.P,U1,SWO*%
X145787500Y-124651250D03*
%TO.P,U1,VBAT,Vbat*%
%TO.N,unconnected-(U1-Vbat-PadVBAT)*%
X154677500Y-128461250D03*
%TD*%
D20*
%TO.P,C1,1*%
%TO.N,+5V*%
X145487500Y-80156250D03*
%TO.P,C1,2*%
%TO.N,GND*%
X148437500Y-80156250D03*
%TD*%
D21*
%TO.N,TOUCH_BUTTON*%
X145000000Y-90500000D03*
X146000000Y-93000000D03*
X146000000Y-93000000D03*
X147000000Y-96000000D03*
%TD*%
D22*
%TO.N,GND*%
X145000000Y-99400000D02*
X143887136Y-99400000D01*
X143887136Y-99400000D02*
X142799000Y-98311864D01*
X142799000Y-98311864D02*
X142799000Y-84701000D01*
X142799000Y-84701000D02*
X144758750Y-82741250D01*
X144758750Y-82741250D02*
X154677500Y-82741250D01*
D23*
X148358125Y-122141875D02*
X148112500Y-121896250D01*
D22*
%TO.N,TOUCH_BUTTON*%
X146000000Y-91500000D02*
X145000000Y-90500000D01*
X146000000Y-93000000D02*
X146000000Y-91500000D01*
X147808000Y-96808000D02*
X147000000Y-96000000D01*
X147808000Y-97500000D02*
X147808000Y-96808000D01*
%TO.N,GND*%
X148500000Y-104500000D02*
X142500000Y-104500000D01*
X150500000Y-102500000D02*
X148500000Y-104500000D01*
X142500000Y-104500000D02*
X142500000Y-110656250D01*
X142500000Y-110656250D02*
X144000000Y-112156250D01*
%TO.N,SIGNAL_TOUCH*%
X147808000Y-99400000D02*
X145208000Y-102000000D01*
X145208000Y-102000000D02*
X141500000Y-102000000D01*
X141500000Y-102000000D02*
X141500000Y-113698750D01*
X141500000Y-113698750D02*
X139437500Y-115761250D01*
%TO.N,GND*%
X147808000Y-98450000D02*
X148408636Y-98450000D01*
X148408636Y-98450000D02*
X149149000Y-99190364D01*
X149149000Y-99190364D02*
X149149000Y-101149000D01*
X149149000Y-101149000D02*
X150500000Y-102500000D01*
%TO.N,+3.3V*%
X145000000Y-98450000D02*
X143928500Y-98450000D01*
X143928500Y-98450000D02*
X143500000Y-98021500D01*
X143500000Y-98021500D02*
X143500000Y-90541960D01*
X143500000Y-90541960D02*
X148760710Y-85281250D01*
X148760710Y-85281250D02*
X154677500Y-85281250D01*
%TO.N,GND*%
X145000000Y-97500000D02*
X145000000Y-96000000D01*
X145000000Y-96000000D02*
X146881250Y-94118750D01*
X146881250Y-94118750D02*
X148462500Y-94118750D01*
X146736500Y-98450000D02*
X146593250Y-98593250D01*
X145000000Y-97500000D02*
X146071500Y-97500000D01*
X146593250Y-98021750D02*
X146593250Y-98593250D01*
X146071500Y-97500000D02*
X146593250Y-98021750D01*
X147808000Y-98450000D02*
X146736500Y-98450000D01*
X146593250Y-98593250D02*
X145786500Y-99400000D01*
X145786500Y-99400000D02*
X145000000Y-99400000D01*
%TO.N,TOUCH_BUTTON*%
X147808000Y-97500000D02*
X148450000Y-97500000D01*
X148450000Y-97500000D02*
X150500000Y-99550000D01*
D23*
%TO.N,+5V*%
X144462500Y-76156250D02*
X144462500Y-79131250D01*
X141922500Y-76156250D02*
X144462500Y-76156250D01*
X144462500Y-79131250D02*
X145487500Y-80156250D01*
%TO.N,GND*%
X139437500Y-125681250D02*
X143222500Y-121896250D01*
X143462500Y-119656250D02*
X144261500Y-118857250D01*
X143222500Y-121896250D02*
X143462500Y-121896250D01*
X144261500Y-117207250D02*
X144812500Y-116656250D01*
X148437500Y-80156250D02*
X148437500Y-77261250D01*
X139437500Y-125921250D02*
X139437500Y-125681250D01*
X152090344Y-92855250D02*
X149726000Y-92855250D01*
X153214500Y-90408250D02*
X153214500Y-91731094D01*
X144261500Y-118857250D02*
X144261500Y-117207250D01*
X151462500Y-88656250D02*
X153214500Y-90408250D01*
X147002500Y-76156250D02*
X149542500Y-76156250D01*
X154632500Y-80156250D02*
X154677500Y-80201250D01*
X148112500Y-121896250D02*
X143462500Y-121896250D01*
X144000000Y-112156250D02*
X144000000Y-115843750D01*
X150867500Y-124651250D02*
X148358125Y-122141875D01*
X148437500Y-80156250D02*
X154632500Y-80156250D01*
X153214500Y-91731094D02*
X152090344Y-92855250D01*
X144000000Y-115843750D02*
X144812500Y-116656250D01*
X143462500Y-121896250D02*
X143462500Y-119656250D01*
X154677500Y-80201250D02*
X154677500Y-82741250D01*
X148437500Y-77261250D02*
X149542500Y-76156250D01*
X149726000Y-92855250D02*
X148462500Y-94118750D01*
%TO.N,+3.3V*%
X139063500Y-128835250D02*
X139437500Y-128461250D01*
X139437500Y-128461250D02*
X140657500Y-128461250D01*
X143247500Y-125871250D02*
X143247500Y-124651250D01*
X152122500Y-132656250D02*
X150223500Y-134555250D01*
X139063500Y-134257250D02*
X139063500Y-128835250D01*
X150223500Y-134555250D02*
X139361500Y-134555250D01*
X139361500Y-134555250D02*
X139063500Y-134257250D01*
X140657500Y-128461250D02*
X143247500Y-125871250D01*
%TO.N,Net-(Q1-B)*%
X150162500Y-88656250D02*
X150162500Y-89893750D01*
X150162500Y-89893750D02*
X151462500Y-91193750D01*
X148462500Y-91193750D02*
X151462500Y-91193750D01*
%TO.N,Net-(Q1-C)*%
X153512500Y-86656250D02*
X154677500Y-87821250D01*
X150812500Y-86656250D02*
X153512500Y-86656250D01*
%TO.N,Net-(R2-Pad1)*%
X151462500Y-94118750D02*
X151462500Y-97981250D01*
X151462500Y-97981250D02*
X154677500Y-97981250D01*
%TO.N,PA6_PWM_OUTPUT*%
X146962500Y-107156250D02*
X150582500Y-107156250D01*
X150582500Y-107156250D02*
X154677500Y-103061250D01*
%TO.N,Net-(J4-Pin_1)*%
X145462500Y-118656250D02*
X146941495Y-118656250D01*
X152330500Y-125257245D02*
X150482495Y-127105250D01*
X152330500Y-124045255D02*
X152330500Y-125257245D01*
X146738500Y-127105250D02*
X145187500Y-128656250D01*
X150482495Y-127105250D02*
X146738500Y-127105250D01*
X146941495Y-118656250D02*
X152330500Y-124045255D01*
%TO.N,Net-(Q2-B)*%
X144037500Y-109268750D02*
X146925000Y-112156250D01*
X144037500Y-107156250D02*
X144037500Y-109268750D01*
X146925000Y-115843750D02*
X146112500Y-116656250D01*
X146925000Y-112156250D02*
X146925000Y-115843750D01*
%TD*%
M02*
