%TF.GenerationSoftware,KiCad,Pcbnew,9.0.2*%
%TF.CreationDate,2025-07-08T19:23:37-03:00*%
%TF.ProjectId,ProlinUp,50726f6c-696e-4557-902e-6b696361645f,rev?*%
%TF.SameCoordinates,Original*%
%TF.FileFunction,Legend,Top*%
%TF.FilePolarity,Positive*%
%FSLAX46Y46*%
G04 Gerber Fmt 4.6, Leading zero omitted, Abs format (unit mm)*
G04 Created by KiCad (PCBNEW 9.0.2) date 2025-07-08 19:23:37*
%MOMM*%
%LPD*%
G01*
G04 APERTURE LIST*
G04 Aperture macros list*
%AMRoundRect*
0 Rectangle with rounded corners*
0 $1 Rounding radius*
0 $2 $3 $4 $5 $6 $7 $8 $9 X,Y pos of 4 corners*
0 Add a 4 corners polygon primitive as box body*
4,1,4,$2,$3,$4,$5,$6,$7,$8,$9,$2,$3,0*
0 Add four circle primitives for the rounded corners*
1,1,$1+$1,$2,$3*
1,1,$1+$1,$4,$5*
1,1,$1+$1,$6,$7*
1,1,$1+$1,$8,$9*
0 Add four rect primitives between the rounded corners*
20,1,$1+$1,$2,$3,$4,$5,0*
20,1,$1+$1,$4,$5,$6,$7,0*
20,1,$1+$1,$6,$7,$8,$9,0*
20,1,$1+$1,$8,$9,$2,$3,0*%
G04 Aperture macros list end*
%ADD10C,0.150000*%
%ADD11C,0.152400*%
%ADD12C,0.100000*%
%ADD13C,0.120000*%
%ADD14RoundRect,0.102000X0.571500X-0.304800X0.571500X0.304800X-0.571500X0.304800X-0.571500X-0.304800X0*%
%ADD15RoundRect,0.250000X-0.650000X0.325000X-0.650000X-0.325000X0.650000X-0.325000X0.650000X0.325000X0*%
%ADD16R,1.700000X1.700000*%
%ADD17C,1.700000*%
%ADD18RoundRect,0.250000X0.312500X0.625000X-0.312500X0.625000X-0.312500X-0.625000X0.312500X-0.625000X0*%
%ADD19RoundRect,0.250000X-0.625000X0.312500X-0.625000X-0.312500X0.625000X-0.312500X0.625000X0.312500X0*%
%ADD20RoundRect,0.250000X0.625000X-0.312500X0.625000X0.312500X-0.625000X0.312500X-0.625000X-0.312500X0*%
%ADD21RoundRect,0.112500X-0.112500X-0.237500X0.112500X-0.237500X0.112500X0.237500X-0.112500X0.237500X0*%
%ADD22RoundRect,0.112500X0.112500X0.237500X-0.112500X0.237500X-0.112500X-0.237500X0.112500X-0.237500X0*%
%ADD23C,1.524000*%
%ADD24RoundRect,0.250000X-0.325000X-0.650000X0.325000X-0.650000X0.325000X0.650000X-0.325000X0.650000X0*%
G04 APERTURE END LIST*
D10*
X143095895Y-97789523D02*
X143743514Y-97789523D01*
X143743514Y-97789523D02*
X143819704Y-97751428D01*
X143819704Y-97751428D02*
X143857800Y-97713333D01*
X143857800Y-97713333D02*
X143895895Y-97637142D01*
X143895895Y-97637142D02*
X143895895Y-97484761D01*
X143895895Y-97484761D02*
X143857800Y-97408571D01*
X143857800Y-97408571D02*
X143819704Y-97370476D01*
X143819704Y-97370476D02*
X143743514Y-97332380D01*
X143743514Y-97332380D02*
X143095895Y-97332380D01*
X143172085Y-96989524D02*
X143133990Y-96951428D01*
X143133990Y-96951428D02*
X143095895Y-96875238D01*
X143095895Y-96875238D02*
X143095895Y-96684762D01*
X143095895Y-96684762D02*
X143133990Y-96608571D01*
X143133990Y-96608571D02*
X143172085Y-96570476D01*
X143172085Y-96570476D02*
X143248276Y-96532381D01*
X143248276Y-96532381D02*
X143324466Y-96532381D01*
X143324466Y-96532381D02*
X143438752Y-96570476D01*
X143438752Y-96570476D02*
X143895895Y-97027619D01*
X143895895Y-97027619D02*
X143895895Y-96532381D01*
X152709580Y-101191666D02*
X152757200Y-101239285D01*
X152757200Y-101239285D02*
X152804819Y-101382142D01*
X152804819Y-101382142D02*
X152804819Y-101477380D01*
X152804819Y-101477380D02*
X152757200Y-101620237D01*
X152757200Y-101620237D02*
X152661961Y-101715475D01*
X152661961Y-101715475D02*
X152566723Y-101763094D01*
X152566723Y-101763094D02*
X152376247Y-101810713D01*
X152376247Y-101810713D02*
X152233390Y-101810713D01*
X152233390Y-101810713D02*
X152042914Y-101763094D01*
X152042914Y-101763094D02*
X151947676Y-101715475D01*
X151947676Y-101715475D02*
X151852438Y-101620237D01*
X151852438Y-101620237D02*
X151804819Y-101477380D01*
X151804819Y-101477380D02*
X151804819Y-101382142D01*
X151804819Y-101382142D02*
X151852438Y-101239285D01*
X151852438Y-101239285D02*
X151900057Y-101191666D01*
X151900057Y-100810713D02*
X151852438Y-100763094D01*
X151852438Y-100763094D02*
X151804819Y-100667856D01*
X151804819Y-100667856D02*
X151804819Y-100429761D01*
X151804819Y-100429761D02*
X151852438Y-100334523D01*
X151852438Y-100334523D02*
X151900057Y-100286904D01*
X151900057Y-100286904D02*
X151995295Y-100239285D01*
X151995295Y-100239285D02*
X152090533Y-100239285D01*
X152090533Y-100239285D02*
X152233390Y-100286904D01*
X152233390Y-100286904D02*
X152804819Y-100858332D01*
X152804819Y-100858332D02*
X152804819Y-100239285D01*
X139107319Y-72104583D02*
X139821604Y-72104583D01*
X139821604Y-72104583D02*
X139964461Y-72152202D01*
X139964461Y-72152202D02*
X140059700Y-72247440D01*
X140059700Y-72247440D02*
X140107319Y-72390297D01*
X140107319Y-72390297D02*
X140107319Y-72485535D01*
X139202557Y-71676011D02*
X139154938Y-71628392D01*
X139154938Y-71628392D02*
X139107319Y-71533154D01*
X139107319Y-71533154D02*
X139107319Y-71295059D01*
X139107319Y-71295059D02*
X139154938Y-71199821D01*
X139154938Y-71199821D02*
X139202557Y-71152202D01*
X139202557Y-71152202D02*
X139297795Y-71104583D01*
X139297795Y-71104583D02*
X139393033Y-71104583D01*
X139393033Y-71104583D02*
X139535890Y-71152202D01*
X139535890Y-71152202D02*
X140107319Y-71723630D01*
X140107319Y-71723630D02*
X140107319Y-71104583D01*
X145333333Y-109441069D02*
X145000000Y-108964878D01*
X144761905Y-109441069D02*
X144761905Y-108441069D01*
X144761905Y-108441069D02*
X145142857Y-108441069D01*
X145142857Y-108441069D02*
X145238095Y-108488688D01*
X145238095Y-108488688D02*
X145285714Y-108536307D01*
X145285714Y-108536307D02*
X145333333Y-108631545D01*
X145333333Y-108631545D02*
X145333333Y-108774402D01*
X145333333Y-108774402D02*
X145285714Y-108869640D01*
X145285714Y-108869640D02*
X145238095Y-108917259D01*
X145238095Y-108917259D02*
X145142857Y-108964878D01*
X145142857Y-108964878D02*
X144761905Y-108964878D01*
X145666667Y-108441069D02*
X146285714Y-108441069D01*
X146285714Y-108441069D02*
X145952381Y-108822021D01*
X145952381Y-108822021D02*
X146095238Y-108822021D01*
X146095238Y-108822021D02*
X146190476Y-108869640D01*
X146190476Y-108869640D02*
X146238095Y-108917259D01*
X146238095Y-108917259D02*
X146285714Y-109012497D01*
X146285714Y-109012497D02*
X146285714Y-109250592D01*
X146285714Y-109250592D02*
X146238095Y-109345830D01*
X146238095Y-109345830D02*
X146190476Y-109393450D01*
X146190476Y-109393450D02*
X146095238Y-109441069D01*
X146095238Y-109441069D02*
X145809524Y-109441069D01*
X145809524Y-109441069D02*
X145714286Y-109393450D01*
X145714286Y-109393450D02*
X145666667Y-109345830D01*
X150747319Y-92822916D02*
X150271128Y-93156249D01*
X150747319Y-93394344D02*
X149747319Y-93394344D01*
X149747319Y-93394344D02*
X149747319Y-93013392D01*
X149747319Y-93013392D02*
X149794938Y-92918154D01*
X149794938Y-92918154D02*
X149842557Y-92870535D01*
X149842557Y-92870535D02*
X149937795Y-92822916D01*
X149937795Y-92822916D02*
X150080652Y-92822916D01*
X150080652Y-92822916D02*
X150175890Y-92870535D01*
X150175890Y-92870535D02*
X150223509Y-92918154D01*
X150223509Y-92918154D02*
X150271128Y-93013392D01*
X150271128Y-93013392D02*
X150271128Y-93394344D01*
X150747319Y-91870535D02*
X150747319Y-92441963D01*
X150747319Y-92156249D02*
X149747319Y-92156249D01*
X149747319Y-92156249D02*
X149890176Y-92251487D01*
X149890176Y-92251487D02*
X149985414Y-92346725D01*
X149985414Y-92346725D02*
X150033033Y-92441963D01*
X145295833Y-114441069D02*
X144962500Y-113964878D01*
X144724405Y-114441069D02*
X144724405Y-113441069D01*
X144724405Y-113441069D02*
X145105357Y-113441069D01*
X145105357Y-113441069D02*
X145200595Y-113488688D01*
X145200595Y-113488688D02*
X145248214Y-113536307D01*
X145248214Y-113536307D02*
X145295833Y-113631545D01*
X145295833Y-113631545D02*
X145295833Y-113774402D01*
X145295833Y-113774402D02*
X145248214Y-113869640D01*
X145248214Y-113869640D02*
X145200595Y-113917259D01*
X145200595Y-113917259D02*
X145105357Y-113964878D01*
X145105357Y-113964878D02*
X144724405Y-113964878D01*
X146152976Y-113774402D02*
X146152976Y-114441069D01*
X145914881Y-113393450D02*
X145676786Y-114107735D01*
X145676786Y-114107735D02*
X146295833Y-114107735D01*
X150087319Y-92822916D02*
X149611128Y-93156249D01*
X150087319Y-93394344D02*
X149087319Y-93394344D01*
X149087319Y-93394344D02*
X149087319Y-93013392D01*
X149087319Y-93013392D02*
X149134938Y-92918154D01*
X149134938Y-92918154D02*
X149182557Y-92870535D01*
X149182557Y-92870535D02*
X149277795Y-92822916D01*
X149277795Y-92822916D02*
X149420652Y-92822916D01*
X149420652Y-92822916D02*
X149515890Y-92870535D01*
X149515890Y-92870535D02*
X149563509Y-92918154D01*
X149563509Y-92918154D02*
X149611128Y-93013392D01*
X149611128Y-93013392D02*
X149611128Y-93394344D01*
X149182557Y-92441963D02*
X149134938Y-92394344D01*
X149134938Y-92394344D02*
X149087319Y-92299106D01*
X149087319Y-92299106D02*
X149087319Y-92061011D01*
X149087319Y-92061011D02*
X149134938Y-91965773D01*
X149134938Y-91965773D02*
X149182557Y-91918154D01*
X149182557Y-91918154D02*
X149277795Y-91870535D01*
X149277795Y-91870535D02*
X149373033Y-91870535D01*
X149373033Y-91870535D02*
X149515890Y-91918154D01*
X149515890Y-91918154D02*
X150087319Y-92489582D01*
X150087319Y-92489582D02*
X150087319Y-91870535D01*
X149112557Y-87801488D02*
X149064938Y-87896726D01*
X149064938Y-87896726D02*
X148969700Y-87991964D01*
X148969700Y-87991964D02*
X148826842Y-88134821D01*
X148826842Y-88134821D02*
X148779223Y-88230059D01*
X148779223Y-88230059D02*
X148779223Y-88325297D01*
X149017319Y-88277678D02*
X148969700Y-88372916D01*
X148969700Y-88372916D02*
X148874461Y-88468154D01*
X148874461Y-88468154D02*
X148683985Y-88515773D01*
X148683985Y-88515773D02*
X148350652Y-88515773D01*
X148350652Y-88515773D02*
X148160176Y-88468154D01*
X148160176Y-88468154D02*
X148064938Y-88372916D01*
X148064938Y-88372916D02*
X148017319Y-88277678D01*
X148017319Y-88277678D02*
X148017319Y-88087202D01*
X148017319Y-88087202D02*
X148064938Y-87991964D01*
X148064938Y-87991964D02*
X148160176Y-87896726D01*
X148160176Y-87896726D02*
X148350652Y-87849107D01*
X148350652Y-87849107D02*
X148683985Y-87849107D01*
X148683985Y-87849107D02*
X148874461Y-87896726D01*
X148874461Y-87896726D02*
X148969700Y-87991964D01*
X148969700Y-87991964D02*
X149017319Y-88087202D01*
X149017319Y-88087202D02*
X149017319Y-88277678D01*
X149017319Y-86896726D02*
X149017319Y-87468154D01*
X149017319Y-87182440D02*
X148017319Y-87182440D01*
X148017319Y-87182440D02*
X148160176Y-87277678D01*
X148160176Y-87277678D02*
X148255414Y-87372916D01*
X148255414Y-87372916D02*
X148303033Y-87468154D01*
X153957319Y-132989583D02*
X154671604Y-132989583D01*
X154671604Y-132989583D02*
X154814461Y-133037202D01*
X154814461Y-133037202D02*
X154909700Y-133132440D01*
X154909700Y-133132440D02*
X154957319Y-133275297D01*
X154957319Y-133275297D02*
X154957319Y-133370535D01*
X154957319Y-131989583D02*
X154957319Y-132561011D01*
X154957319Y-132275297D02*
X153957319Y-132275297D01*
X153957319Y-132275297D02*
X154100176Y-132370535D01*
X154100176Y-132370535D02*
X154195414Y-132465773D01*
X154195414Y-132465773D02*
X154243033Y-132561011D01*
X148262557Y-117701488D02*
X148214938Y-117796726D01*
X148214938Y-117796726D02*
X148119700Y-117891964D01*
X148119700Y-117891964D02*
X147976842Y-118034821D01*
X147976842Y-118034821D02*
X147929223Y-118130059D01*
X147929223Y-118130059D02*
X147929223Y-118225297D01*
X148167319Y-118177678D02*
X148119700Y-118272916D01*
X148119700Y-118272916D02*
X148024461Y-118368154D01*
X148024461Y-118368154D02*
X147833985Y-118415773D01*
X147833985Y-118415773D02*
X147500652Y-118415773D01*
X147500652Y-118415773D02*
X147310176Y-118368154D01*
X147310176Y-118368154D02*
X147214938Y-118272916D01*
X147214938Y-118272916D02*
X147167319Y-118177678D01*
X147167319Y-118177678D02*
X147167319Y-117987202D01*
X147167319Y-117987202D02*
X147214938Y-117891964D01*
X147214938Y-117891964D02*
X147310176Y-117796726D01*
X147310176Y-117796726D02*
X147500652Y-117749107D01*
X147500652Y-117749107D02*
X147833985Y-117749107D01*
X147833985Y-117749107D02*
X148024461Y-117796726D01*
X148024461Y-117796726D02*
X148119700Y-117891964D01*
X148119700Y-117891964D02*
X148167319Y-117987202D01*
X148167319Y-117987202D02*
X148167319Y-118177678D01*
X147262557Y-117368154D02*
X147214938Y-117320535D01*
X147214938Y-117320535D02*
X147167319Y-117225297D01*
X147167319Y-117225297D02*
X147167319Y-116987202D01*
X147167319Y-116987202D02*
X147214938Y-116891964D01*
X147214938Y-116891964D02*
X147262557Y-116844345D01*
X147262557Y-116844345D02*
X147357795Y-116796726D01*
X147357795Y-116796726D02*
X147453033Y-116796726D01*
X147453033Y-116796726D02*
X147595890Y-116844345D01*
X147595890Y-116844345D02*
X148167319Y-117415773D01*
X148167319Y-117415773D02*
X148167319Y-116796726D01*
X142262319Y-128989583D02*
X142976604Y-128989583D01*
X142976604Y-128989583D02*
X143119461Y-129037202D01*
X143119461Y-129037202D02*
X143214700Y-129132440D01*
X143214700Y-129132440D02*
X143262319Y-129275297D01*
X143262319Y-129275297D02*
X143262319Y-129370535D01*
X142595652Y-128084821D02*
X143262319Y-128084821D01*
X142214700Y-128322916D02*
X142928985Y-128561011D01*
X142928985Y-128561011D02*
X142928985Y-127941964D01*
X148200595Y-92356069D02*
X148200595Y-93165592D01*
X148200595Y-93165592D02*
X148248214Y-93260830D01*
X148248214Y-93260830D02*
X148295833Y-93308450D01*
X148295833Y-93308450D02*
X148391071Y-93356069D01*
X148391071Y-93356069D02*
X148581547Y-93356069D01*
X148581547Y-93356069D02*
X148676785Y-93308450D01*
X148676785Y-93308450D02*
X148724404Y-93260830D01*
X148724404Y-93260830D02*
X148772023Y-93165592D01*
X148772023Y-93165592D02*
X148772023Y-92356069D01*
X149772023Y-93356069D02*
X149200595Y-93356069D01*
X149486309Y-93356069D02*
X149486309Y-92356069D01*
X149486309Y-92356069D02*
X149391071Y-92498926D01*
X149391071Y-92498926D02*
X149295833Y-92594164D01*
X149295833Y-92594164D02*
X149200595Y-92641783D01*
X146795833Y-78665830D02*
X146748214Y-78713450D01*
X146748214Y-78713450D02*
X146605357Y-78761069D01*
X146605357Y-78761069D02*
X146510119Y-78761069D01*
X146510119Y-78761069D02*
X146367262Y-78713450D01*
X146367262Y-78713450D02*
X146272024Y-78618211D01*
X146272024Y-78618211D02*
X146224405Y-78522973D01*
X146224405Y-78522973D02*
X146176786Y-78332497D01*
X146176786Y-78332497D02*
X146176786Y-78189640D01*
X146176786Y-78189640D02*
X146224405Y-77999164D01*
X146224405Y-77999164D02*
X146272024Y-77903926D01*
X146272024Y-77903926D02*
X146367262Y-77808688D01*
X146367262Y-77808688D02*
X146510119Y-77761069D01*
X146510119Y-77761069D02*
X146605357Y-77761069D01*
X146605357Y-77761069D02*
X146748214Y-77808688D01*
X146748214Y-77808688D02*
X146795833Y-77856307D01*
X147748214Y-78761069D02*
X147176786Y-78761069D01*
X147462500Y-78761069D02*
X147462500Y-77761069D01*
X147462500Y-77761069D02*
X147367262Y-77903926D01*
X147367262Y-77903926D02*
X147272024Y-77999164D01*
X147272024Y-77999164D02*
X147176786Y-78046783D01*
D11*
%TO.C,U2*%
X147185000Y-99897800D02*
X145623000Y-99897800D01*
X145623000Y-97002200D02*
X147185000Y-97002200D01*
D12*
X146954000Y-99600000D02*
G75*
G02*
X146854000Y-99600000I-50000J0D01*
G01*
X146854000Y-99600000D02*
G75*
G02*
X146954000Y-99600000I50000J0D01*
G01*
D13*
%TO.C,C2*%
X151410000Y-100313748D02*
X151410000Y-101736252D01*
X149590000Y-100313748D02*
X149590000Y-101736252D01*
%TO.C,J2*%
X140542500Y-72006250D02*
X140542500Y-74766250D01*
X140542500Y-74766250D02*
X153462500Y-74766250D01*
X140652500Y-77426250D02*
X140652500Y-76156250D01*
X141492500Y-74996250D02*
X141492500Y-74766250D01*
X141922500Y-77426250D02*
X140652500Y-77426250D01*
X142352500Y-74996250D02*
X142352500Y-74766250D01*
X143192500Y-74766250D02*
X143192500Y-72006250D01*
X144032500Y-66006250D02*
X144892500Y-66006250D01*
X144032500Y-72006250D02*
X144032500Y-66006250D01*
X144032500Y-75078892D02*
X144032500Y-74766250D01*
X144892500Y-66006250D02*
X144892500Y-72006250D01*
X144892500Y-75078892D02*
X144892500Y-74766250D01*
X145732500Y-74766250D02*
X145732500Y-72006250D01*
X146572500Y-66006250D02*
X147432500Y-66006250D01*
X146572500Y-72006250D02*
X146572500Y-66006250D01*
X146572500Y-75078892D02*
X146572500Y-74766250D01*
X147432500Y-66006250D02*
X147432500Y-72006250D01*
X147432500Y-75078892D02*
X147432500Y-74766250D01*
X148272500Y-74766250D02*
X148272500Y-72006250D01*
X149112500Y-66006250D02*
X149972500Y-66006250D01*
X149112500Y-72006250D02*
X149112500Y-66006250D01*
X149112500Y-75078892D02*
X149112500Y-74766250D01*
X149972500Y-66006250D02*
X149972500Y-72006250D01*
X149972500Y-75078892D02*
X149972500Y-74766250D01*
X150812500Y-74766250D02*
X150812500Y-72006250D01*
X151652500Y-66006250D02*
X152512500Y-66006250D01*
X151652500Y-72006250D02*
X151652500Y-66006250D01*
X151652500Y-75078892D02*
X151652500Y-74766250D01*
X152512500Y-66006250D02*
X152512500Y-72006250D01*
X152512500Y-75078892D02*
X152512500Y-74766250D01*
X153462500Y-72006250D02*
X140542500Y-72006250D01*
X153462500Y-74766250D02*
X153462500Y-72006250D01*
X141492500Y-72006250D02*
X142352500Y-72006250D01*
X142352500Y-66006250D01*
X141492500Y-66006250D01*
X141492500Y-72006250D01*
G36*
X141492500Y-72006250D02*
G01*
X142352500Y-72006250D01*
X142352500Y-66006250D01*
X141492500Y-66006250D01*
X141492500Y-72006250D01*
G37*
%TO.C,R3*%
X146227064Y-106246250D02*
X144772936Y-106246250D01*
X146227064Y-108066250D02*
X144772936Y-108066250D01*
%TO.C,R1*%
X147552500Y-91929186D02*
X147552500Y-93383314D01*
X149372500Y-91929186D02*
X149372500Y-93383314D01*
%TO.C,R4*%
X146189564Y-111246250D02*
X144735436Y-111246250D01*
X146189564Y-113066250D02*
X144735436Y-113066250D01*
%TO.C,R2*%
X150552500Y-93383314D02*
X150552500Y-91929186D01*
X152372500Y-93383314D02*
X152372500Y-91929186D01*
%TO.C,Q1*%
X149652500Y-86926250D02*
X150312500Y-86926250D01*
X149652500Y-88336250D02*
X149652500Y-86926250D01*
X151312500Y-86926250D02*
X151972500Y-86926250D01*
X151972500Y-88336250D02*
X151972500Y-86926250D01*
X149672500Y-88706250D02*
X149342500Y-88946250D01*
X149342500Y-88466250D01*
X149672500Y-88706250D01*
G36*
X149672500Y-88706250D02*
G01*
X149342500Y-88946250D01*
X149342500Y-88466250D01*
X149672500Y-88706250D01*
G37*
%TO.C,J1*%
X140582500Y-131276250D02*
X140582500Y-134036250D01*
X150852500Y-131276250D02*
X140582500Y-131276250D01*
X150852500Y-131276250D02*
X150852500Y-134036250D01*
X150852500Y-134036250D02*
X140582500Y-134036250D01*
X152122500Y-131276250D02*
X153502500Y-131276250D01*
X153502500Y-131276250D02*
X153502500Y-132656250D01*
%TO.C,Q2*%
X144302500Y-116976250D02*
X144302500Y-118386250D01*
X144962500Y-118386250D02*
X144302500Y-118386250D01*
X146622500Y-116976250D02*
X146622500Y-118386250D01*
X146622500Y-118386250D02*
X145962500Y-118386250D01*
X146932500Y-116846250D02*
X146602500Y-116606250D01*
X146932500Y-116366250D01*
X146932500Y-116846250D01*
G36*
X146932500Y-116846250D02*
G01*
X146602500Y-116606250D01*
X146932500Y-116366250D01*
X146932500Y-116846250D01*
G37*
%TO.C,J4*%
X143807500Y-130036250D02*
X143807500Y-128656250D01*
X145187500Y-130036250D02*
X143807500Y-130036250D01*
X146457500Y-127276250D02*
X149107500Y-127276250D01*
X146457500Y-130036250D02*
X146457500Y-127276250D01*
X146457500Y-130036250D02*
X149107500Y-130036250D01*
X149107500Y-130036250D02*
X149107500Y-127276250D01*
%TO.C,C1*%
X146251248Y-79246250D02*
X147673752Y-79246250D01*
X146251248Y-81066250D02*
X147673752Y-81066250D01*
%TD*%
%LPC*%
D14*
%TO.C,U2*%
X147808000Y-99400000D03*
X147808000Y-98450000D03*
X147808000Y-97500000D03*
X145000000Y-97500000D03*
X145000000Y-98450000D03*
X145000000Y-99400000D03*
%TD*%
D15*
%TO.C,C2*%
X150500000Y-99550000D03*
X150500000Y-102500000D03*
%TD*%
D16*
%TO.C,J2*%
X141922500Y-76156250D03*
D17*
X144462500Y-76156250D03*
X147002500Y-76156250D03*
X149542500Y-76156250D03*
X152082500Y-76156250D03*
%TD*%
D18*
%TO.C,R3*%
X146962500Y-107156250D03*
X144037500Y-107156250D03*
%TD*%
D19*
%TO.C,R1*%
X148462500Y-91193750D03*
X148462500Y-94118750D03*
%TD*%
D18*
%TO.C,R4*%
X146925000Y-112156250D03*
X144000000Y-112156250D03*
%TD*%
D20*
%TO.C,R2*%
X151462500Y-94118750D03*
X151462500Y-91193750D03*
%TD*%
D21*
%TO.C,Q1*%
X150162500Y-88656250D03*
X151462500Y-88656250D03*
X150812500Y-86656250D03*
%TD*%
D16*
%TO.C,J1*%
X152122500Y-132656250D03*
D17*
X149582500Y-132656250D03*
X147042500Y-132656250D03*
X144502500Y-132656250D03*
X141962500Y-132656250D03*
%TD*%
D22*
%TO.C,Q2*%
X146112500Y-116656250D03*
X144812500Y-116656250D03*
X145462500Y-118656250D03*
%TD*%
D16*
%TO.C,J4*%
X145187500Y-128656250D03*
D17*
X147727500Y-128656250D03*
%TD*%
D23*
%TO.C,U1*%
X139437500Y-128461250D03*
X143247500Y-124651250D03*
X154677500Y-85281250D03*
X139437500Y-123381250D03*
X139437500Y-125921250D03*
X150867500Y-124651250D03*
X154677500Y-80201250D03*
X154677500Y-82741250D03*
X154677500Y-87821250D03*
X154677500Y-118301250D03*
X154677500Y-115761250D03*
X154677500Y-113221250D03*
X154677500Y-110681250D03*
X154677500Y-108141250D03*
X154677500Y-105601250D03*
X154677500Y-103061250D03*
X154677500Y-100521250D03*
X139437500Y-90361250D03*
X139437500Y-92901250D03*
X139437500Y-95441250D03*
X139437500Y-97981250D03*
X139437500Y-100521250D03*
X139437500Y-103061250D03*
X154677500Y-97981250D03*
X154677500Y-95441250D03*
X139437500Y-105601250D03*
X139437500Y-108141250D03*
X139437500Y-110681250D03*
X139437500Y-113221250D03*
X139437500Y-115761250D03*
X139437500Y-118301250D03*
X139437500Y-120841250D03*
X154677500Y-92901250D03*
X154677500Y-90361250D03*
X139437500Y-80201250D03*
X139437500Y-82741250D03*
X139437500Y-85281250D03*
X139437500Y-87821250D03*
X154677500Y-125921250D03*
X154677500Y-123381250D03*
X154677500Y-120841250D03*
X148327500Y-124651250D03*
X145787500Y-124651250D03*
X154677500Y-128461250D03*
%TD*%
D24*
%TO.C,C1*%
X145487500Y-80156250D03*
X148437500Y-80156250D03*
%TD*%
%LPD*%
M02*
