M48
; DRILL file {KiCad 9.0.2} date 2025-07-08T19:23:34-0300
; FORMAT={-:-/ absolute / metric / decimal}
; #@! TF.CreationDate,2025-07-08T19:23:34-03:00
; #@! TF.GenerationSoftware,Kicad,Pcbnew,9.0.2
; #@! TF.FileFunction,Plated,1,2,PTH
FMAT,2
METRIC
; #@! TA.AperFunction,Plated,PTH,ViaDrill
T1C0.300
; #@! TA.AperFunction,Plated,PTH,ComponentDrill
T2C0.900
; #@! TA.AperFunction,Plated,PTH,ComponentDrill
T3C1.000
%
G90
G05
T1
X145.0Y-90.5
X146.0Y-93.0
X146.0Y-93.0
X147.0Y-96.0
T2
X139.438Y-80.201
X139.438Y-82.741
X139.438Y-85.281
X139.438Y-87.821
X139.438Y-90.361
X139.438Y-92.901
X139.438Y-95.441
X139.438Y-97.981
X139.438Y-100.521
X139.438Y-103.061
X139.438Y-105.601
X139.438Y-108.141
X139.438Y-110.681
X139.438Y-113.221
X139.438Y-115.761
X139.438Y-118.301
X139.438Y-120.841
X139.438Y-123.381
X139.438Y-125.921
X139.438Y-128.461
X143.248Y-124.651
X145.787Y-124.651
X148.327Y-124.651
X150.868Y-124.651
X154.677Y-80.201
X154.677Y-82.741
X154.677Y-85.281
X154.677Y-87.821
X154.677Y-90.361
X154.677Y-92.901
X154.677Y-95.441
X154.677Y-97.981
X154.677Y-100.521
X154.677Y-103.061
X154.677Y-105.601
X154.677Y-108.141
X154.677Y-110.681
X154.677Y-113.221
X154.677Y-115.761
X154.677Y-118.301
X154.677Y-120.841
X154.677Y-123.381
X154.677Y-125.921
X154.677Y-128.461
T3
X141.922Y-76.156
X141.963Y-132.656
X144.463Y-76.156
X144.502Y-132.656
X145.188Y-128.656
X147.002Y-76.156
X147.042Y-132.656
X147.727Y-128.656
X149.542Y-76.156
X149.582Y-132.656
X152.082Y-76.156
X152.123Y-132.656
M30
